<svg xmlns="http://www.w3.org/2000/svg" xmlns:xlink="http://www.w3.org/1999/xlink" width="375" viewBox="0 0 375 375" height="375" version="1.0"><defs><g id="a"><path d="M 28.304688 0.65625 C 38.070312 0.65625 46.519531 -4.839844 50.703125 -12.882812 L 41.351562 -17.722656 C 38.972656 -13.046875 34.132812 -9.925781 28.304688 -9.925781 C 20.019531 -9.925781 13.703125 -16.328125 13.703125 -24.613281 C 13.703125 -32.902344 20.019531 -39.300781 28.304688 -39.300781 C 34.132812 -39.300781 38.972656 -36.183594 41.351562 -31.507812 L 50.703125 -36.347656 C 46.519531 -44.386719 38.070312 -49.882812 28.304688 -49.882812 C 14.359375 -49.882812 3.035156 -38.5625 3.035156 -24.613281 C 3.035156 -10.667969 14.359375 0.65625 28.304688 0.65625 Z M 28.304688 0.65625"/></g><g id="b"><path d="M 28.304688 0.65625 C 42.335938 0.65625 53.578125 -10.667969 53.578125 -24.613281 C 53.578125 -38.5625 42.335938 -49.882812 28.304688 -49.882812 C 14.359375 -49.882812 3.035156 -38.5625 3.035156 -24.613281 C 3.035156 -10.667969 14.359375 0.65625 28.304688 0.65625 Z M 28.304688 -9.925781 C 20.019531 -9.925781 13.703125 -16.328125 13.703125 -24.613281 C 13.703125 -32.902344 20.019531 -39.300781 28.304688 -39.300781 C 36.675781 -39.300781 42.992188 -32.902344 42.992188 -24.613281 C 42.992188 -16.328125 36.675781 -9.925781 28.304688 -9.925781 Z M 28.304688 -9.925781"/></g><g id="c"><path d="M 4.839844 0 L 21.085938 0 C 34.625 0 45.699219 -10.996094 45.699219 -24.613281 C 45.699219 -38.234375 34.625 -49.226562 21.085938 -49.226562 L 4.839844 -49.226562 Z M 15.671875 -9.597656 L 15.671875 -39.628906 L 21.003906 -39.628906 C 28.796875 -39.628906 34.871094 -33.148438 34.871094 -24.613281 C 34.871094 -16.082031 28.796875 -9.597656 21.003906 -9.597656 Z M 15.671875 -9.597656"/></g><g id="d"><path d="M 5.25 0 L 16.082031 0 L 16.082031 -49.226562 L 5.25 -49.226562 Z M 5.25 0"/></g><g id="e"><path d="M 35.199219 -49.226562 L -0.410156 -49.226562 L -0.410156 -39.628906 L 12.0625 -39.628906 L 12.0625 0 L 22.808594 0 L 22.808594 -39.628906 L 35.199219 -39.628906 Z M 35.199219 -49.226562"/></g><g id="f"><path d="M 30.519531 -20.265625 C 36.347656 -21.988281 40.449219 -27.402344 40.449219 -34.132812 C 40.449219 -42.5 34.214844 -49.226562 25.761719 -49.226562 L 4.839844 -49.226562 L 4.839844 0 L 15.671875 0 L 15.671875 -19.035156 L 20.019531 -19.035156 L 32.164062 0 L 44.304688 0 Z M 24.121094 -27.976562 L 15.671875 -27.976562 L 15.671875 -39.628906 L 24.121094 -39.628906 C 27.566406 -39.628906 30.109375 -37.167969 30.109375 -33.804688 C 30.109375 -30.355469 27.566406 -27.976562 24.121094 -27.976562 Z M 24.121094 -27.976562"/></g></defs><g fill="#FFF"><use x="-.648" y="205.919" xmlns:xlink="http://www.w3.org/1999/xlink" xlink:href="#a" xlink:type="simple" xlink:actuate="onLoad" xlink:show="embed"/></g><g fill="#FFF"><use x="62.036" y="205.919" xmlns:xlink="http://www.w3.org/1999/xlink" xlink:href="#b" xlink:type="simple" xlink:actuate="onLoad" xlink:show="embed"/></g><g fill="#FFF"><use x="128.576" y="205.919" xmlns:xlink="http://www.w3.org/1999/xlink" xlink:href="#c" xlink:type="simple" xlink:actuate="onLoad" xlink:show="embed"/></g><g fill="#FFF"><use x="187.158" y="205.919" xmlns:xlink="http://www.w3.org/1999/xlink" xlink:href="#d" xlink:type="simple" xlink:actuate="onLoad" xlink:show="embed"/></g><g fill="#FFF"><use x="218.254" y="205.919" xmlns:xlink="http://www.w3.org/1999/xlink" xlink:href="#e" xlink:type="simple" xlink:actuate="onLoad" xlink:show="embed"/></g><g fill="#FFF"><use x="262.888" y="205.919" xmlns:xlink="http://www.w3.org/1999/xlink" xlink:href="#b" xlink:type="simple" xlink:actuate="onLoad" xlink:show="embed"/></g><g fill="#FFF"><use x="329.428" y="205.919" xmlns:xlink="http://www.w3.org/1999/xlink" xlink:href="#f" xlink:type="simple" xlink:actuate="onLoad" xlink:show="embed"/></g></svg>