<svg width="67" height="67" xmlns="http://www.w3.org/2000/svg" xmlns:xlink="http://www.w3.org/1999/xlink" overflow="hidden"><defs><clipPath id="clip0"><rect x="452" y="172" width="67" height="67"/></clipPath><clipPath id="clip1"><rect x="460" y="172" width="53" height="54"/></clipPath><clipPath id="clip2"><rect x="459" y="172" width="53" height="53"/></clipPath></defs><g clip-path="url(#clip0)" transform="translate(-452 -172)"><path d="M485.564 181.412 485.564 177.338C485.564 176.994 485.843 176.715 486.19 176.715L486.262 176.715C486.609 176.715 486.887 176.994 486.887 177.338L486.887 181.412C486.887 181.756 486.609 182.037 486.262 182.037L486.19 182.037C485.843 182.037 485.564 181.756 485.564 181.412"/><path d="M487.272 188.199 485.18 188.197 485.182 185.936 487.272 185.936ZM488.491 188.86C488.491 188.857 488.491 188.857 488.491 188.857L488.491 185.279C488.491 184.916 488.22 184.62 487.881 184.62L484.611 184.62C484.6 184.618 484.586 184.618 484.573 184.618 484.478 184.618 484.386 184.642 484.305 184.683 484.102 184.791 483.961 185.015 483.961 185.279 483.961 185.3 483.961 185.319 483.964 185.341L483.961 188.855C483.958 189.22 484.232 189.513 484.568 189.516L487.881 189.518C488.217 189.518 488.491 189.223 488.491 188.86"/><path d="M485.564 196.795 485.564 192.723C485.564 192.38 485.843 192.098 486.19 192.098L486.262 192.098C486.609 192.098 486.887 192.38 486.887 192.723L486.887 196.795C486.887 197.142 486.609 197.42 486.262 197.42L486.19 197.42C485.843 197.42 485.564 197.142 485.564 196.795"/><path d="M485.564 212.18 485.564 208.109C485.564 207.763 485.843 207.483 486.19 207.483L486.262 207.483C486.609 207.483 486.887 207.763 486.887 208.109L486.887 212.18C486.887 212.527 486.609 212.806 486.262 212.806L486.19 212.806C485.843 212.806 485.564 212.527 485.564 212.18"/><path d="M480.558 180.297 478.463 180.294 478.466 178.033 480.558 178.033ZM481.777 180.955 481.777 177.373C481.777 177.01 481.503 176.715 481.167 176.715L477.897 176.715C477.884 176.715 477.87 176.715 477.856 176.715 477.762 176.715 477.669 176.737 477.591 176.78 477.385 176.886 477.244 177.113 477.244 177.373 477.244 177.395 477.244 177.417 477.247 177.435L477.244 180.952C477.244 181.315 477.515 181.61 477.854 181.61L481.165 181.612C481.503 181.612 481.777 181.318 481.777 180.955"/><path d="M480.558 211.487 478.463 211.487 478.466 209.224 480.558 209.224ZM481.777 212.148C481.777 212.148 481.777 212.148 481.777 212.146L481.777 208.567C481.777 208.204 481.503 207.909 481.167 207.909L477.897 207.909C477.884 207.909 477.87 207.906 477.856 207.906 477.762 207.906 477.669 207.93 477.591 207.973 477.385 208.079 477.244 208.304 477.244 208.567 477.244 208.588 477.244 208.607 477.247 208.629L477.244 212.143C477.244 212.508 477.515 212.803 477.854 212.803L481.165 212.806C481.503 212.806 481.777 212.511 481.777 212.148"/><path d="M480.558 195.891 478.463 195.891 478.466 193.631 480.558 193.631ZM481.777 196.551C481.777 196.549 481.777 196.549 481.777 196.549L481.777 192.97C481.777 192.607 481.503 192.312 481.167 192.312L477.897 192.312C477.884 192.312 477.87 192.309 477.856 192.309 477.762 192.309 477.669 192.334 477.591 192.377 477.385 192.482 477.244 192.71 477.244 192.97 477.244 192.991 477.244 193.01 477.247 193.032L477.244 196.549C477.244 196.911 477.515 197.207 477.854 197.207L481.165 197.209C481.503 197.209 481.777 196.914 481.777 196.551"/><path d="M478.847 189.104 478.847 185.032C478.847 184.685 479.129 184.407 479.473 184.407L479.548 184.407C479.892 184.407 480.173 184.685 480.173 185.032L480.173 189.104C480.173 189.448 479.892 189.729 479.548 189.729L479.473 189.729C479.129 189.729 478.847 189.448 478.847 189.104"/><path d="M472.131 181.412 472.131 177.338C472.131 176.994 472.412 176.715 472.756 176.715L472.831 176.715C473.175 176.715 473.457 176.994 473.457 177.338L473.457 181.412C473.457 181.756 473.175 182.037 472.831 182.037L472.756 182.037C472.412 182.037 472.131 181.756 472.131 181.412"/><path d="M473.841 188.199 471.749 188.197 471.749 185.936 473.841 185.936ZM475.06 188.86C475.06 188.857 475.06 188.857 475.06 188.857L475.06 185.279C475.06 184.916 474.786 184.62 474.451 184.62L471.18 184.62C471.167 184.618 471.153 184.618 471.142 184.618 471.045 184.618 470.955 184.642 470.874 184.683 470.669 184.791 470.528 185.015 470.528 185.279 470.528 185.3 470.53 185.319 470.53 185.341L470.528 188.855C470.528 189.22 470.801 189.513 471.137 189.516L474.451 189.518C474.786 189.518 475.06 189.223 475.06 188.86"/><path d="M472.131 196.795 472.131 192.723C472.131 192.38 472.412 192.098 472.756 192.098L472.831 192.098C473.175 192.098 473.457 192.38 473.457 192.723L473.457 196.795C473.457 197.142 473.175 197.42 472.831 197.42L472.756 197.42C472.412 197.42 472.131 197.142 472.131 196.795"/><path d="M472.131 212.18 472.131 208.109C472.131 207.763 472.412 207.483 472.756 207.483L472.831 207.483C473.175 207.483 473.457 207.763 473.457 208.109L473.457 212.18C473.457 212.527 473.175 212.806 472.831 212.806L472.756 212.806C472.412 212.806 472.131 212.527 472.131 212.18"/><path d="M467.125 180.297 465.032 180.294 465.034 178.033 467.125 178.033ZM468.343 180.955 468.343 177.373C468.343 177.01 468.072 176.715 467.734 176.715L464.463 176.715C464.452 176.715 464.439 176.715 464.426 176.715 464.331 176.715 464.239 176.737 464.158 176.78 463.955 176.886 463.814 177.113 463.814 177.373 463.814 177.395 463.814 177.417 463.816 177.435L463.814 180.952C463.811 181.315 464.084 181.61 464.42 181.61L467.734 181.612C468.07 181.612 468.343 181.318 468.343 180.955"/><path d="M467.125 211.487 465.032 211.487 465.034 209.224 467.125 209.224ZM468.343 212.148C468.343 212.148 468.343 212.148 468.343 212.146L468.343 208.567C468.343 208.204 468.072 207.909 467.734 207.909L464.463 207.909C464.452 207.909 464.439 207.906 464.426 207.906 464.331 207.906 464.239 207.93 464.158 207.973 463.955 208.079 463.814 208.304 463.814 208.567 463.814 208.588 463.814 208.607 463.816 208.629L463.814 212.143C463.811 212.508 464.084 212.803 464.42 212.803L467.734 212.806C468.07 212.806 468.343 212.511 468.343 212.148"/><path d="M467.125 195.891 465.032 195.891 465.034 193.631 467.125 193.631ZM468.343 196.551C468.343 196.549 468.343 196.549 468.343 196.549L468.343 192.97C468.343 192.607 468.072 192.312 467.734 192.312L464.463 192.312C464.452 192.312 464.439 192.309 464.426 192.309 464.331 192.309 464.239 192.334 464.158 192.377 463.955 192.482 463.814 192.71 463.814 192.97 463.814 192.991 463.814 193.01 463.816 193.032L463.814 196.549C463.811 196.911 464.084 197.207 464.42 197.207L467.734 197.209C468.07 197.209 468.343 196.914 468.343 196.551"/><path d="M465.416 189.104 465.416 185.032C465.416 184.685 465.695 184.407 466.041 184.407L466.115 184.407C466.462 184.407 466.74 184.685 466.74 185.032L466.74 189.104C466.74 189.448 466.462 189.729 466.115 189.729L466.041 189.729C465.695 189.729 465.416 189.448 465.416 189.104"/><path d="M487.272 203.585 485.18 203.582 485.182 201.322 487.272 201.322ZM488.491 204.243 488.491 200.664C488.491 200.298 488.22 200.003 487.881 200.003L484.611 200.003C484.6 200.003 484.586 200.003 484.573 200.003 484.478 200.003 484.386 200.028 484.305 200.068 484.102 200.176 483.961 200.401 483.961 200.664 483.961 200.683 483.961 200.705 483.964 200.723L483.961 204.24C483.958 204.603 484.232 204.898 484.568 204.898L487.881 204.9C488.217 204.903 488.491 204.608 488.491 204.243"/><path d="M478.847 204.489 478.847 200.415C478.847 200.071 479.129 199.792 479.473 199.792L479.548 199.792C479.892 199.792 480.173 200.071 480.173 200.415L480.173 204.489C480.173 204.833 479.892 205.115 479.548 205.115L479.473 205.115C479.129 205.115 478.847 204.833 478.847 204.489"/><path d="M473.841 203.585 471.749 203.582 471.749 201.322 473.841 201.322ZM475.06 204.243 475.06 200.664C475.06 200.298 474.786 200.003 474.451 200.003L471.18 200.003C471.167 200.003 471.153 200.003 471.142 200.003 471.045 200.003 470.955 200.028 470.874 200.068 470.669 200.176 470.528 200.401 470.528 200.664 470.528 200.683 470.53 200.705 470.53 200.723L470.528 204.24C470.528 204.603 470.801 204.898 471.137 204.898L474.451 204.9C474.786 204.903 475.06 204.608 475.06 204.243"/><path d="M465.416 204.489 465.416 200.415C465.416 200.071 465.695 199.792 466.041 199.792L466.115 199.792C466.462 199.792 466.74 200.071 466.74 200.415L466.74 204.489C466.74 204.833 466.462 205.115 466.115 205.115L466.041 205.115C465.695 205.115 465.416 204.833 465.416 204.489"/><path d="M487.272 220.01 485.18 220.008 485.182 217.747 487.272 217.747ZM488.491 220.668C488.491 220.668 488.491 220.668 488.491 220.665L488.491 217.086C488.491 216.723 488.22 216.429 487.881 216.429L484.611 216.429C484.6 216.429 484.586 216.429 484.573 216.429 484.478 216.429 484.386 216.45 484.305 216.494 484.102 216.599 483.961 216.826 483.961 217.086 483.961 217.108 483.961 217.129 483.964 217.148L483.961 220.665C483.958 221.028 484.232 221.323 484.568 221.323L487.881 221.326C488.217 221.326 488.491 221.031 488.491 220.668"/><path d="M478.847 220.914 478.847 216.84C478.847 216.496 479.129 216.214 479.473 216.214L479.548 216.214C479.892 216.214 480.173 216.496 480.173 216.84L480.173 220.914C480.173 221.258 479.892 221.537 479.548 221.537L479.473 221.537C479.129 221.537 478.847 221.258 478.847 220.914"/><path d="M473.841 220.01 471.749 220.008 471.749 217.747 473.841 217.747ZM475.06 220.668C475.06 220.668 475.06 220.668 475.06 220.665L475.06 217.086C475.06 216.723 474.786 216.429 474.451 216.429L471.18 216.429C471.167 216.429 471.153 216.429 471.142 216.429 471.045 216.429 470.955 216.45 470.874 216.494 470.669 216.599 470.528 216.826 470.528 217.086 470.528 217.108 470.53 217.129 470.53 217.148L470.528 220.665C470.528 221.028 470.801 221.323 471.137 221.323L474.451 221.326C474.786 221.326 475.06 221.031 475.06 220.668"/><path d="M465.416 220.914 465.416 216.84C465.416 216.496 465.695 216.214 466.041 216.214L466.115 216.214C466.462 216.214 466.74 216.496 466.74 216.84L466.74 220.914C466.74 221.258 466.462 221.537 466.115 221.537L466.041 221.537C465.695 221.537 465.416 221.258 465.416 220.914"/><path d="M507.417 180.297 505.324 180.294 505.327 178.033 507.417 178.033ZM508.635 180.955 508.635 177.373C508.635 177.01 508.364 176.715 508.026 176.715L504.756 176.715C504.742 176.715 504.731 176.715 504.718 176.715 504.623 176.715 504.531 176.737 504.45 176.78 504.247 176.886 504.106 177.113 504.106 177.373 504.106 177.395 504.106 177.417 504.109 177.435L504.106 180.952C504.104 181.315 504.377 181.61 504.712 181.61L508.026 181.612C508.362 181.612 508.635 181.318 508.635 180.955"/><path d="M507.417 211.487 505.324 211.487 505.327 209.224 507.417 209.224ZM508.635 212.148C508.635 212.148 508.635 212.148 508.635 212.146L508.635 208.567C508.635 208.204 508.364 207.909 508.026 207.909L504.756 207.909C504.742 207.909 504.731 207.906 504.718 207.906 504.623 207.906 504.531 207.93 504.45 207.973 504.247 208.079 504.106 208.304 504.106 208.567 504.106 208.588 504.106 208.607 504.109 208.629L504.106 212.143C504.104 212.508 504.377 212.803 504.712 212.803L508.026 212.806C508.362 212.806 508.635 212.511 508.635 212.148"/><path d="M507.417 195.891 505.324 195.891 505.327 193.631 507.417 193.631ZM508.635 196.551C508.635 196.549 508.635 196.549 508.635 196.549L508.635 192.97C508.635 192.607 508.364 192.312 508.026 192.312L504.756 192.312C504.742 192.312 504.731 192.309 504.718 192.309 504.623 192.309 504.531 192.334 504.45 192.377 504.247 192.482 504.106 192.71 504.106 192.97 504.106 192.991 504.106 193.01 504.109 193.032L504.106 196.549C504.104 196.911 504.377 197.207 504.712 197.207L508.026 197.209C508.362 197.209 508.635 196.914 508.635 196.551"/><path d="M505.709 189.104 505.709 185.032C505.709 184.685 505.987 184.407 506.334 184.407L506.408 184.407C506.754 184.407 507.033 184.685 507.033 185.032L507.033 189.104C507.033 189.448 506.754 189.729 506.408 189.729L506.334 189.729C505.987 189.729 505.709 189.448 505.709 189.104"/><path d="M498.992 181.412 498.992 177.338C498.992 176.994 499.273 176.715 499.617 176.715L499.693 176.715C500.037 176.715 500.319 176.994 500.319 177.338L500.319 181.412C500.319 181.756 500.037 182.037 499.693 182.037L499.617 182.037C499.273 182.037 498.992 181.756 498.992 181.412"/><path d="M500.703 188.199 498.608 188.197 498.61 185.936 500.703 185.936ZM501.921 188.86C501.921 188.857 501.921 188.857 501.921 188.857L501.921 185.279C501.921 184.916 501.648 184.62 501.312 184.62L498.042 184.62C498.028 184.618 498.014 184.618 498.001 184.618 497.906 184.618 497.814 184.642 497.736 184.683 497.53 184.791 497.389 185.015 497.389 185.279 497.389 185.3 497.389 185.319 497.392 185.341L497.389 188.855C497.389 189.22 497.663 189.513 497.998 189.516L501.309 189.518C501.648 189.518 501.921 189.223 501.921 188.86"/><path d="M498.992 196.795 498.992 192.723C498.992 192.38 499.273 192.098 499.617 192.098L499.693 192.098C500.037 192.098 500.319 192.38 500.319 192.723L500.319 196.795C500.319 197.142 500.037 197.42 499.693 197.42L499.617 197.42C499.273 197.42 498.992 197.142 498.992 196.795"/><path d="M498.992 212.18 498.992 208.109C498.992 207.763 499.273 207.483 499.617 207.483L499.693 207.483C500.037 207.483 500.319 207.763 500.319 208.109L500.319 212.18C500.319 212.527 500.037 212.806 499.693 212.806L499.617 212.806C499.273 212.806 498.992 212.527 498.992 212.18"/><path d="M493.986 180.297 491.894 180.294 491.894 178.033 493.986 178.033ZM495.205 180.955 495.205 177.373C495.205 177.01 494.931 176.715 494.595 176.715L491.325 176.715C491.312 176.715 491.298 176.715 491.287 176.715 491.189 176.715 491.1 176.737 491.019 176.78 490.813 176.886 490.672 177.113 490.672 177.373 490.672 177.395 490.675 177.417 490.675 177.435L490.672 180.952C490.672 181.315 490.946 181.61 491.282 181.61L494.595 181.612C494.931 181.612 495.205 181.318 495.205 180.955"/><path d="M493.986 211.487 491.894 211.487 491.894 209.224 493.986 209.224ZM495.205 212.148C495.205 212.148 495.205 212.148 495.205 212.146L495.205 208.567C495.205 208.204 494.931 207.909 494.595 207.909L491.325 207.909C491.312 207.909 491.298 207.906 491.287 207.906 491.189 207.906 491.1 207.93 491.019 207.973 490.813 208.079 490.672 208.304 490.672 208.567 490.672 208.588 490.675 208.607 490.675 208.629L490.672 212.143C490.672 212.508 490.946 212.803 491.282 212.803L494.595 212.806C494.931 212.806 495.205 212.511 495.205 212.148"/><path d="M493.986 195.891 491.894 195.891 491.894 193.631 493.986 193.631ZM495.205 196.551C495.205 196.549 495.205 196.549 495.205 196.549L495.205 192.97C495.205 192.607 494.931 192.312 494.595 192.312L491.325 192.312C491.312 192.312 491.298 192.309 491.287 192.309 491.189 192.309 491.1 192.334 491.019 192.377 490.813 192.482 490.672 192.71 490.672 192.97 490.672 192.991 490.675 193.01 490.675 193.032L490.672 196.549C490.672 196.911 490.946 197.207 491.282 197.207L494.595 197.209C494.931 197.209 495.205 196.914 495.205 196.551"/><path d="M492.275 189.104 492.275 185.032C492.275 184.685 492.557 184.407 492.901 184.407L492.976 184.407C493.32 184.407 493.602 184.685 493.602 185.032L493.602 189.104C493.602 189.448 493.32 189.729 492.976 189.729L492.901 189.729C492.557 189.729 492.275 189.448 492.275 189.104"/><path d="M505.709 204.489 505.709 200.415C505.709 200.071 505.987 199.792 506.334 199.792L506.408 199.792C506.754 199.792 507.033 200.071 507.033 200.415L507.033 204.489C507.033 204.833 506.754 205.115 506.408 205.115L506.334 205.115C505.987 205.115 505.709 204.833 505.709 204.489"/><path d="M500.703 203.585 498.608 203.582 498.61 201.322 500.703 201.322ZM501.921 204.243 501.921 200.664C501.921 200.298 501.648 200.003 501.312 200.003L498.042 200.003C498.028 200.003 498.014 200.003 498.001 200.003 497.906 200.003 497.814 200.028 497.736 200.068 497.53 200.176 497.389 200.401 497.389 200.664 497.389 200.683 497.389 200.705 497.392 200.723L497.389 204.24C497.389 204.603 497.663 204.898 497.998 204.898L501.309 204.9C501.648 204.903 501.921 204.608 501.921 204.243"/><path d="M492.275 204.489 492.275 200.415C492.275 200.071 492.557 199.792 492.901 199.792L492.976 199.792C493.32 199.792 493.602 200.071 493.602 200.415L493.602 204.489C493.602 204.833 493.32 205.115 492.976 205.115L492.901 205.115C492.557 205.115 492.275 204.833 492.275 204.489"/><path d="M505.709 220.914 505.709 216.84C505.709 216.496 505.987 216.214 506.334 216.214L506.408 216.214C506.754 216.214 507.033 216.496 507.033 216.84L507.033 220.914C507.033 221.258 506.754 221.537 506.408 221.537L506.334 221.537C505.987 221.537 505.709 221.258 505.709 220.914"/><path d="M500.703 220.01 498.608 220.008 498.61 217.747 500.703 217.747ZM501.921 220.668C501.921 220.668 501.921 220.668 501.921 220.665L501.921 217.086C501.921 216.723 501.648 216.429 501.312 216.429L498.042 216.429C498.028 216.429 498.014 216.429 498.001 216.429 497.906 216.429 497.814 216.45 497.736 216.494 497.53 216.599 497.389 216.826 497.389 217.086 497.389 217.108 497.389 217.129 497.392 217.148L497.389 220.665C497.389 221.028 497.663 221.323 497.998 221.323L501.309 221.326C501.648 221.326 501.921 221.031 501.921 220.668"/><path d="M492.275 220.914 492.275 216.84C492.275 216.496 492.557 216.214 492.901 216.214L492.976 216.214C493.32 216.214 493.602 216.496 493.602 216.84L493.602 220.914C493.602 221.258 493.32 221.537 492.976 221.537L492.901 221.537C492.557 221.537 492.275 221.258 492.275 220.914"/><g clip-path="url(#clip1)"><path d="M461.453 223.898 510.996 223.898 510.996 174.355 461.453 174.355ZM512.352 225.254 460.097 225.254 460.097 172.998 512.352 172.998 512.352 225.254"/></g><path d="M484.471 180.415 484.471 176.34C484.471 175.996 484.749 175.718 485.096 175.718L485.169 175.718C485.515 175.718 485.795 175.996 485.795 176.34L485.795 180.415C485.795 180.759 485.515 181.04 485.169 181.04L485.096 181.04C484.749 181.04 484.471 180.759 484.471 180.415" fill="#FFFFFF"/><path d="M486.178 187.202 484.086 187.199 484.089 184.939 486.178 184.939ZM487.397 187.862C487.397 187.859 487.397 187.859 487.397 187.859L487.397 184.281C487.397 183.918 487.126 183.623 486.788 183.623L483.517 183.623C483.507 183.62 483.493 183.62 483.48 183.62 483.385 183.62 483.292 183.645 483.212 183.685 483.008 183.793 482.867 184.018 482.867 184.281 482.867 184.302 482.867 184.321 482.87 184.343L482.867 187.857C482.865 188.222 483.138 188.515 483.474 188.518L486.788 188.52C487.123 188.52 487.397 188.225 487.397 187.862" fill="#FFFFFF"/><path d="M484.471 195.798 484.471 191.726C484.471 191.382 484.749 191.101 485.096 191.101L485.169 191.101C485.515 191.101 485.795 191.382 485.795 191.726L485.795 195.798C485.795 196.144 485.515 196.423 485.169 196.423L485.096 196.423C484.749 196.423 484.471 196.144 484.471 195.798" fill="#FFFFFF"/><path d="M484.471 211.183 484.471 207.111C484.471 206.765 484.749 206.486 485.096 206.486L485.169 206.486C485.515 206.486 485.795 206.765 485.795 207.111L485.795 211.183C485.795 211.529 485.515 211.808 485.169 211.808L485.096 211.808C484.749 211.808 484.471 211.529 484.471 211.183" fill="#FFFFFF"/><path d="M479.464 179.3 477.369 179.297 477.372 177.036 479.464 177.036ZM480.683 179.957 480.683 176.375C480.683 176.013 480.409 175.718 480.074 175.718L476.803 175.718C476.79 175.718 476.776 175.718 476.763 175.718 476.668 175.718 476.576 175.739 476.498 175.783 476.292 175.888 476.151 176.116 476.151 176.375 476.151 176.397 476.151 176.419 476.154 176.438L476.151 179.955C476.151 180.317 476.422 180.612 476.76 180.612L480.071 180.615C480.409 180.615 480.683 180.32 480.683 179.957" fill="#FFFFFF"/><path d="M479.464 210.49 477.369 210.49 477.372 208.227 479.464 208.227ZM480.683 211.15C480.683 211.15 480.683 211.15 480.683 211.148L480.683 207.569C480.683 207.206 480.409 206.911 480.074 206.911L476.803 206.911C476.79 206.911 476.776 206.908 476.763 206.908 476.668 206.908 476.576 206.933 476.498 206.976 476.292 207.081 476.151 207.306 476.151 207.569 476.151 207.59 476.151 207.609 476.154 207.631L476.151 211.145C476.151 211.51 476.422 211.806 476.76 211.806L480.071 211.808C480.409 211.808 480.683 211.513 480.683 211.15" fill="#FFFFFF"/><path d="M479.464 194.893 477.369 194.893 477.372 192.633 479.464 192.633ZM480.683 195.554C480.683 195.551 480.683 195.551 480.683 195.551L480.683 191.972C480.683 191.609 480.409 191.314 480.074 191.314L476.803 191.314C476.79 191.314 476.776 191.311 476.763 191.311 476.668 191.311 476.576 191.336 476.498 191.379 476.292 191.485 476.151 191.712 476.151 191.972 476.151 191.994 476.151 192.013 476.154 192.034L476.151 195.551C476.151 195.914 476.422 196.209 476.76 196.209L480.071 196.211C480.409 196.211 480.683 195.917 480.683 195.554" fill="#FFFFFF"/><path d="M477.754 188.106 477.754 184.034C477.754 183.688 478.035 183.409 478.379 183.409L478.455 183.409C478.799 183.409 479.08 183.688 479.08 184.034L479.08 188.106C479.08 188.45 478.799 188.732 478.455 188.732L478.379 188.732C478.035 188.732 477.754 188.45 477.754 188.106" fill="#FFFFFF"/><path d="M471.037 180.415 471.037 176.34C471.037 175.996 471.318 175.718 471.662 175.718L471.738 175.718C472.082 175.718 472.363 175.996 472.363 176.34L472.363 180.415C472.363 180.759 472.082 181.04 471.738 181.04L471.662 181.04C471.318 181.04 471.037 180.759 471.037 180.415" fill="#FFFFFF"/><path d="M472.748 187.202 470.655 187.199 470.655 184.939 472.748 184.939ZM473.966 187.862C473.966 187.859 473.966 187.859 473.966 187.859L473.966 184.281C473.966 183.918 473.693 183.623 473.357 183.623L470.087 183.623C470.073 183.62 470.059 183.62 470.049 183.62 469.951 183.62 469.862 183.645 469.781 183.685 469.575 183.793 469.434 184.018 469.434 184.281 469.434 184.302 469.437 184.321 469.437 184.343L469.434 187.857C469.434 188.222 469.708 188.515 470.043 188.518L473.357 188.52C473.693 188.52 473.966 188.225 473.966 187.862" fill="#FFFFFF"/><path d="M471.037 195.798 471.037 191.726C471.037 191.382 471.318 191.101 471.662 191.101L471.738 191.101C472.082 191.101 472.363 191.382 472.363 191.726L472.363 195.798C472.363 196.144 472.082 196.423 471.738 196.423L471.662 196.423C471.318 196.423 471.037 196.144 471.037 195.798" fill="#FFFFFF"/><path d="M471.037 211.183 471.037 207.111C471.037 206.765 471.318 206.486 471.662 206.486L471.738 206.486C472.082 206.486 472.363 206.765 472.363 207.111L472.363 211.183C472.363 211.529 472.082 211.808 471.738 211.808L471.662 211.808C471.318 211.808 471.037 211.529 471.037 211.183" fill="#FFFFFF"/><path d="M466.031 179.3 463.939 179.297 463.941 177.036 466.031 177.036ZM467.249 179.957 467.249 176.375C467.249 176.013 466.979 175.718 466.64 175.718L463.37 175.718C463.359 175.718 463.345 175.718 463.332 175.718 463.237 175.718 463.145 175.739 463.064 175.783 462.861 175.888 462.72 176.116 462.72 176.375 462.72 176.397 462.72 176.419 462.723 176.438L462.72 179.955C462.717 180.317 462.991 180.612 463.326 180.612L466.64 180.615C466.976 180.615 467.249 180.32 467.249 179.957" fill="#FFFFFF"/><path d="M466.031 210.49 463.939 210.49 463.941 208.227 466.031 208.227ZM467.249 211.15C467.249 211.15 467.249 211.15 467.249 211.148L467.249 207.569C467.249 207.206 466.979 206.911 466.64 206.911L463.37 206.911C463.359 206.911 463.345 206.908 463.332 206.908 463.237 206.908 463.145 206.933 463.064 206.976 462.861 207.081 462.72 207.306 462.72 207.569 462.72 207.59 462.72 207.609 462.723 207.631L462.72 211.145C462.717 211.51 462.991 211.806 463.326 211.806L466.64 211.808C466.976 211.808 467.249 211.513 467.249 211.15" fill="#FFFFFF"/><path d="M466.031 194.893 463.939 194.893 463.941 192.633 466.031 192.633ZM467.249 195.554C467.249 195.551 467.249 195.551 467.249 195.551L467.249 191.972C467.249 191.609 466.979 191.314 466.64 191.314L463.37 191.314C463.359 191.314 463.345 191.311 463.332 191.311 463.237 191.311 463.145 191.336 463.064 191.379 462.861 191.485 462.72 191.712 462.72 191.972 462.72 191.994 462.72 192.013 462.723 192.034L462.72 195.551C462.717 195.914 462.991 196.209 463.326 196.209L466.64 196.211C466.976 196.211 467.249 195.917 467.249 195.554" fill="#FFFFFF"/><path d="M464.323 188.106 464.323 184.034C464.323 183.688 464.602 183.409 464.948 183.409L465.021 183.409C465.368 183.409 465.646 183.688 465.646 184.034L465.646 188.106C465.646 188.45 465.368 188.732 465.021 188.732L464.948 188.732C464.602 188.732 464.323 188.45 464.323 188.106" fill="#FFFFFF"/><path d="M486.178 202.588 484.086 202.585 484.089 200.324 486.178 200.324ZM487.397 203.245 487.397 199.666C487.397 199.3 487.126 199.006 486.788 199.006L483.517 199.006C483.507 199.006 483.493 199.006 483.48 199.006 483.385 199.006 483.292 199.03 483.212 199.071 483.008 199.179 482.867 199.404 482.867 199.666 482.867 199.685 482.867 199.707 482.87 199.725L482.867 203.242C482.865 203.605 483.138 203.9 483.474 203.9L486.788 203.903C487.123 203.906 487.397 203.611 487.397 203.245" fill="#FFFFFF"/><path d="M477.754 203.491 477.754 199.417C477.754 199.074 478.035 198.794 478.379 198.794L478.455 198.794C478.799 198.794 479.08 199.074 479.08 199.417L479.08 203.491C479.08 203.835 478.799 204.117 478.455 204.117L478.379 204.117C478.035 204.117 477.754 203.835 477.754 203.491" fill="#FFFFFF"/><path d="M472.748 202.588 470.655 202.585 470.655 200.324 472.748 200.324ZM473.966 203.245 473.966 199.666C473.966 199.3 473.693 199.006 473.357 199.006L470.087 199.006C470.073 199.006 470.059 199.006 470.049 199.006 469.951 199.006 469.862 199.03 469.781 199.071 469.575 199.179 469.434 199.404 469.434 199.666 469.434 199.685 469.437 199.707 469.437 199.725L469.434 203.242C469.434 203.605 469.708 203.9 470.043 203.9L473.357 203.903C473.693 203.906 473.966 203.611 473.966 203.245" fill="#FFFFFF"/><path d="M464.323 203.491 464.323 199.417C464.323 199.074 464.602 198.794 464.948 198.794L465.021 198.794C465.368 198.794 465.646 199.074 465.646 199.417L465.646 203.491C465.646 203.835 465.368 204.117 465.021 204.117L464.948 204.117C464.602 204.117 464.323 203.835 464.323 203.491" fill="#FFFFFF"/><path d="M486.178 219.012 484.086 219.01 484.089 216.749 486.178 216.749ZM487.397 219.671C487.397 219.671 487.397 219.671 487.397 219.668L487.397 216.089C487.397 215.726 487.126 215.431 486.788 215.431L483.517 215.431C483.507 215.431 483.493 215.431 483.48 215.431 483.385 215.431 483.292 215.452 483.212 215.496 483.008 215.601 482.867 215.828 482.867 216.089 482.867 216.11 482.867 216.132 482.87 216.151L482.867 219.668C482.865 220.031 483.138 220.325 483.474 220.325L486.788 220.328C487.123 220.328 487.397 220.033 487.397 219.671" fill="#FFFFFF"/><path d="M477.754 219.917 477.754 215.842C477.754 215.498 478.035 215.217 478.379 215.217L478.455 215.217C478.799 215.217 479.08 215.498 479.08 215.842L479.08 219.917C479.08 220.26 478.799 220.539 478.455 220.539L478.379 220.539C478.035 220.539 477.754 220.26 477.754 219.917" fill="#FFFFFF"/><path d="M472.748 219.012 470.655 219.01 470.655 216.749 472.748 216.749ZM473.966 219.671C473.966 219.671 473.966 219.671 473.966 219.668L473.966 216.089C473.966 215.726 473.693 215.431 473.357 215.431L470.087 215.431C470.073 215.431 470.059 215.431 470.049 215.431 469.951 215.431 469.862 215.452 469.781 215.496 469.575 215.601 469.434 215.828 469.434 216.089 469.434 216.11 469.437 216.132 469.437 216.151L469.434 219.668C469.434 220.031 469.708 220.325 470.043 220.325L473.357 220.328C473.693 220.328 473.966 220.033 473.966 219.671" fill="#FFFFFF"/><path d="M464.323 219.917 464.323 215.842C464.323 215.498 464.602 215.217 464.948 215.217L465.021 215.217C465.368 215.217 465.646 215.498 465.646 215.842L465.646 219.917C465.646 220.26 465.368 220.539 465.021 220.539L464.948 220.539C464.602 220.539 464.323 220.26 464.323 219.917" fill="#FFFFFF"/><path d="M506.324 179.3 504.231 179.297 504.233 177.036 506.324 177.036ZM507.542 179.957 507.542 176.375C507.542 176.013 507.271 175.718 506.932 175.718L503.663 175.718C503.649 175.718 503.638 175.718 503.624 175.718 503.529 175.718 503.438 175.739 503.356 175.783 503.153 175.888 503.013 176.116 503.013 176.375 503.013 176.397 503.013 176.419 503.015 176.438L503.013 179.955C503.01 180.317 503.283 180.612 503.619 180.612L506.932 180.615C507.268 180.615 507.542 180.32 507.542 179.957" fill="#FFFFFF"/><path d="M506.324 210.49 504.231 210.49 504.233 208.227 506.324 208.227ZM507.542 211.15C507.542 211.15 507.542 211.15 507.542 211.148L507.542 207.569C507.542 207.206 507.271 206.911 506.932 206.911L503.663 206.911C503.649 206.911 503.638 206.908 503.624 206.908 503.529 206.908 503.438 206.933 503.356 206.976 503.153 207.081 503.013 207.306 503.013 207.569 503.013 207.59 503.013 207.609 503.015 207.631L503.013 211.145C503.01 211.51 503.283 211.806 503.619 211.806L506.932 211.808C507.268 211.808 507.542 211.513 507.542 211.15" fill="#FFFFFF"/><path d="M506.324 194.893 504.231 194.893 504.233 192.633 506.324 192.633ZM507.542 195.554C507.542 195.551 507.542 195.551 507.542 195.551L507.542 191.972C507.542 191.609 507.271 191.314 506.932 191.314L503.663 191.314C503.649 191.314 503.638 191.311 503.624 191.311 503.529 191.311 503.438 191.336 503.356 191.379 503.153 191.485 503.013 191.712 503.013 191.972 503.013 191.994 503.013 192.013 503.015 192.034L503.013 195.551C503.01 195.914 503.283 196.209 503.619 196.209L506.932 196.211C507.268 196.211 507.542 195.917 507.542 195.554" fill="#FFFFFF"/><path d="M504.615 188.106 504.615 184.034C504.615 183.688 504.894 183.409 505.241 183.409L505.314 183.409C505.66 183.409 505.939 183.688 505.939 184.034L505.939 188.106C505.939 188.45 505.66 188.732 505.314 188.732L505.241 188.732C504.894 188.732 504.615 188.45 504.615 188.106" fill="#FFFFFF"/><path d="M497.898 180.415 497.898 176.34C497.898 175.996 498.18 175.718 498.524 175.718L498.6 175.718C498.943 175.718 499.225 175.996 499.225 176.34L499.225 180.415C499.225 180.759 498.943 181.04 498.6 181.04L498.524 181.04C498.18 181.04 497.898 180.759 497.898 180.415" fill="#FFFFFF"/><path d="M499.61 187.202 497.514 187.199 497.517 184.939 499.61 184.939ZM500.828 187.862C500.828 187.859 500.828 187.859 500.828 187.859L500.828 184.281C500.828 183.918 500.554 183.623 500.218 183.623L496.948 183.623C496.935 183.62 496.921 183.62 496.907 183.62 496.813 183.62 496.721 183.645 496.642 183.685 496.436 183.793 496.296 184.018 496.296 184.281 496.296 184.302 496.296 184.321 496.298 184.343L496.296 187.857C496.296 188.222 496.569 188.515 496.905 188.518L500.216 188.52C500.554 188.52 500.828 188.225 500.828 187.862" fill="#FFFFFF"/><path d="M497.898 195.798 497.898 191.726C497.898 191.382 498.18 191.101 498.524 191.101L498.6 191.101C498.943 191.101 499.225 191.382 499.225 191.726L499.225 195.798C499.225 196.144 498.943 196.423 498.6 196.423L498.524 196.423C498.18 196.423 497.898 196.144 497.898 195.798" fill="#FFFFFF"/><path d="M497.898 211.183 497.898 207.111C497.898 206.765 498.18 206.486 498.524 206.486L498.6 206.486C498.943 206.486 499.225 206.765 499.225 207.111L499.225 211.183C499.225 211.529 498.943 211.808 498.6 211.808L498.524 211.808C498.18 211.808 497.898 211.529 497.898 211.183" fill="#FFFFFF"/><path d="M492.893 179.3 490.8 179.297 490.8 177.036 492.893 177.036ZM494.111 179.957 494.111 176.375C494.111 176.013 493.837 175.718 493.502 175.718L490.231 175.718C490.218 175.718 490.205 175.718 490.193 175.718 490.096 175.718 490.006 175.739 489.925 175.783 489.72 175.888 489.579 176.116 489.579 176.375 489.579 176.397 489.581 176.419 489.581 176.438L489.579 179.955C489.579 180.317 489.852 180.612 490.188 180.612L493.502 180.615C493.837 180.615 494.111 180.32 494.111 179.957" fill="#FFFFFF"/><path d="M492.893 210.49 490.8 210.49 490.8 208.227 492.893 208.227ZM494.111 211.15C494.111 211.15 494.111 211.15 494.111 211.148L494.111 207.569C494.111 207.206 493.837 206.911 493.502 206.911L490.231 206.911C490.218 206.911 490.205 206.908 490.193 206.908 490.096 206.908 490.006 206.933 489.925 206.976 489.72 207.081 489.579 207.306 489.579 207.569 489.579 207.59 489.581 207.609 489.581 207.631L489.579 211.145C489.579 211.51 489.852 211.806 490.188 211.806L493.502 211.808C493.837 211.808 494.111 211.513 494.111 211.15" fill="#FFFFFF"/><path d="M492.893 194.893 490.8 194.893 490.8 192.633 492.893 192.633ZM494.111 195.554C494.111 195.551 494.111 195.551 494.111 195.551L494.111 191.972C494.111 191.609 493.837 191.314 493.502 191.314L490.231 191.314C490.218 191.314 490.205 191.311 490.193 191.311 490.096 191.311 490.006 191.336 489.925 191.379 489.72 191.485 489.579 191.712 489.579 191.972 489.579 191.994 489.581 192.013 489.581 192.034L489.579 195.551C489.579 195.914 489.852 196.209 490.188 196.209L493.502 196.211C493.837 196.211 494.111 195.917 494.111 195.554" fill="#FFFFFF"/><path d="M491.182 188.106 491.182 184.034C491.182 183.688 491.463 183.409 491.807 183.409L491.883 183.409C492.227 183.409 492.508 183.688 492.508 184.034L492.508 188.106C492.508 188.45 492.227 188.732 491.883 188.732L491.807 188.732C491.463 188.732 491.182 188.45 491.182 188.106" fill="#FFFFFF"/><path d="M504.615 203.491 504.615 199.417C504.615 199.074 504.894 198.794 505.241 198.794L505.314 198.794C505.66 198.794 505.939 199.074 505.939 199.417L505.939 203.491C505.939 203.835 505.66 204.117 505.314 204.117L505.241 204.117C504.894 204.117 504.615 203.835 504.615 203.491" fill="#FFFFFF"/><path d="M499.61 202.588 497.514 202.585 497.517 200.324 499.61 200.324ZM500.828 203.245 500.828 199.666C500.828 199.3 500.554 199.006 500.218 199.006L496.948 199.006C496.935 199.006 496.921 199.006 496.907 199.006 496.813 199.006 496.721 199.03 496.642 199.071 496.436 199.179 496.296 199.404 496.296 199.666 496.296 199.685 496.296 199.707 496.298 199.725L496.296 203.242C496.296 203.605 496.569 203.9 496.905 203.9L500.216 203.903C500.554 203.906 500.828 203.611 500.828 203.245" fill="#FFFFFF"/><path d="M491.182 203.491 491.182 199.417C491.182 199.074 491.463 198.794 491.807 198.794L491.883 198.794C492.227 198.794 492.508 199.074 492.508 199.417L492.508 203.491C492.508 203.835 492.227 204.117 491.883 204.117L491.807 204.117C491.463 204.117 491.182 203.835 491.182 203.491" fill="#FFFFFF"/><path d="M504.615 219.917 504.615 215.842C504.615 215.498 504.894 215.217 505.241 215.217L505.314 215.217C505.66 215.217 505.939 215.498 505.939 215.842L505.939 219.917C505.939 220.26 505.66 220.539 505.314 220.539L505.241 220.539C504.894 220.539 504.615 220.26 504.615 219.917" fill="#FFFFFF"/><path d="M499.61 219.012 497.514 219.01 497.517 216.749 499.61 216.749ZM500.828 219.671C500.828 219.671 500.828 219.671 500.828 219.668L500.828 216.089C500.828 215.726 500.554 215.431 500.218 215.431L496.948 215.431C496.935 215.431 496.921 215.431 496.907 215.431 496.813 215.431 496.721 215.452 496.642 215.496 496.436 215.601 496.296 215.828 496.296 216.089 496.296 216.11 496.296 216.132 496.298 216.151L496.296 219.668C496.296 220.031 496.569 220.325 496.905 220.325L500.216 220.328C500.554 220.328 500.828 220.033 500.828 219.671" fill="#FFFFFF"/><path d="M491.182 219.917 491.182 215.842C491.182 215.498 491.463 215.217 491.807 215.217L491.883 215.217C492.227 215.217 492.508 215.498 492.508 215.842L492.508 219.917C492.508 220.26 492.227 220.539 491.883 220.539L491.807 220.539C491.463 220.539 491.182 220.26 491.182 219.917" fill="#FFFFFF"/><g clip-path="url(#clip2)"><path d="M460.36 222.9 509.903 222.9 509.903 173.357 460.36 173.357ZM511.259 224.257 459.003 224.257 459.003 172.001 511.259 172.001 511.259 224.257" fill="#FFFFFF"/></g><path d="M458.781 237.063C460.452 237.063 461.898 236.122 462.614 234.746L461.014 233.917C460.606 234.718 459.778 235.252 458.781 235.252 457.363 235.252 456.282 234.156 456.282 232.738 456.282 231.32 457.363 230.225 458.781 230.225 459.778 230.225 460.606 230.759 461.014 231.559L462.614 230.731C461.898 229.354 460.452 228.414 458.781 228.414 456.394 228.414 454.456 230.351 454.456 232.738 454.456 235.125 456.394 237.063 458.781 237.063Z"/><path d="M469.508 237.063C471.909 237.063 473.832 235.125 473.832 232.738 473.832 230.351 471.909 228.414 469.508 228.414 467.121 228.414 465.183 230.351 465.183 232.738 465.183 235.125 467.121 237.063 469.508 237.063ZM469.508 235.252C468.09 235.252 467.009 234.156 467.009 232.738 467.009 231.32 468.09 230.225 469.508 230.225 470.94 230.225 472.021 231.32 472.021 232.738 472.021 234.156 470.94 235.252 469.508 235.252Z"/><path d="M476.879 236.951 479.658 236.951C481.975 236.951 483.871 235.069 483.871 232.738 483.871 230.408 481.975 228.526 479.658 228.526L476.879 228.526ZM478.732 235.308 478.732 230.169 479.644 230.169C480.979 230.169 482.017 231.278 482.017 232.738 482.017 234.199 480.979 235.308 479.644 235.308Z"/><path d="M486.974 236.951 488.826 236.951 488.826 228.526 486.974 228.526Z"/><path d="M497.42 228.526 491.325 228.526 491.325 230.169 493.46 230.169 493.46 236.951 495.299 236.951 495.299 230.169 497.42 230.169Z"/><path d="M503.878 237.063C506.279 237.063 508.202 235.125 508.202 232.738 508.202 230.351 506.279 228.414 503.878 228.414 501.491 228.414 499.553 230.351 499.553 232.738 499.553 235.125 501.491 237.063 503.878 237.063ZM503.878 235.252C502.46 235.252 501.379 234.156 501.379 232.738 501.379 231.32 502.46 230.225 503.878 230.225 505.31 230.225 506.391 231.32 506.391 232.738 506.391 234.156 505.31 235.252 503.878 235.252Z"/><path d="M515.643 233.483C516.64 233.187 517.342 232.261 517.342 231.11 517.342 229.678 516.275 228.526 514.829 228.526L511.249 228.526 511.249 236.951 513.102 236.951 513.102 233.693 513.846 233.693 515.924 236.951 518.002 236.951ZM514.548 232.163 513.102 232.163 513.102 230.169 514.548 230.169C515.138 230.169 515.573 230.59 515.573 231.165 515.573 231.755 515.138 232.163 514.548 232.163Z"/><path d="M457.913 236.194C459.584 236.194 461.03 235.254 461.746 233.877L460.145 233.049C459.738 233.849 458.909 234.383 457.913 234.383 456.495 234.383 455.414 233.288 455.414 231.869 455.414 230.452 456.495 229.356 457.913 229.356 458.909 229.356 459.738 229.89 460.145 230.691L461.746 229.862C461.03 228.486 459.584 227.545 457.913 227.545 455.526 227.545 453.588 229.483 453.588 231.869 453.588 234.257 455.526 236.194 457.913 236.194Z" fill="#FFFFFF"/><path d="M468.639 236.194C471.04 236.194 472.964 234.257 472.964 231.869 472.964 229.483 471.04 227.545 468.639 227.545 466.253 227.545 464.314 229.483 464.314 231.869 464.314 234.257 466.253 236.194 468.639 236.194ZM468.639 234.383C467.221 234.383 466.14 233.288 466.14 231.869 466.14 230.452 467.221 229.356 468.639 229.356 470.072 229.356 471.153 230.452 471.153 231.869 471.153 233.288 470.072 234.383 468.639 234.383Z" fill="#FFFFFF"/><path d="M476.01 236.082 478.79 236.082C481.107 236.082 483.003 234.2 483.003 231.869 483.003 229.539 481.107 227.657 478.79 227.657L476.01 227.657ZM477.864 234.439 477.864 229.3 478.776 229.3C480.11 229.3 481.149 230.409 481.149 231.869 481.149 233.33 480.11 234.439 478.776 234.439Z" fill="#FFFFFF"/><path d="M486.105 236.082 487.958 236.082 487.958 227.657 486.105 227.657Z" fill="#FFFFFF"/><path d="M496.551 227.657 490.457 227.657 490.457 229.3 492.591 229.3 492.591 236.082 494.431 236.082 494.431 229.3 496.551 229.3Z" fill="#FFFFFF"/><path d="M503.009 236.194C505.41 236.194 507.334 234.257 507.334 231.869 507.334 229.483 505.41 227.545 503.009 227.545 500.622 227.545 498.684 229.483 498.684 231.869 498.684 234.257 500.622 236.194 503.009 236.194ZM503.009 234.383C501.591 234.383 500.51 233.288 500.51 231.869 500.51 230.452 501.591 229.356 503.009 229.356 504.441 229.356 505.523 230.452 505.523 231.869 505.523 233.288 504.441 234.383 503.009 234.383Z" fill="#FFFFFF"/><path d="M514.775 232.614C515.771 232.319 516.474 231.392 516.474 230.241 516.474 228.809 515.406 227.657 513.96 227.657L510.38 227.657 510.38 236.082 512.234 236.082 512.234 232.825 512.978 232.825 515.055 236.082 517.134 236.082ZM513.68 231.294 512.234 231.294 512.234 229.3 513.68 229.3C514.269 229.3 514.704 229.721 514.704 230.297 514.704 230.887 514.269 231.294 513.68 231.294Z" fill="#FFFFFF"/></g></svg>