<svg width="100px" height="100px" viewBox="0 0 100 100" enable-background="new 0 0 100 100" xmlns="http://www.w3.org/2000/svg" xmlns:xlink="http://www.w3.org/1999/xlink" overflow="hidden"><defs><clipPath id="clip0"><rect x="493" y="173" width="307" height="363"/></clipPath><clipPath id="clip1"><rect x="502" y="178" width="295" height="294"/></clipPath><clipPath id="clip2"><rect x="496" y="173" width="295" height="294"/></clipPath></defs><g clip-path="url(#clip0)" transform="translate(-493 -173)"><path d="M192.865 52.8055 192.865 29.9579C192.865 28.0283 194.428 26.4651 196.374 26.4651L196.783 26.4651C198.728 26.4651 200.291 28.0283 200.291 29.9579L200.291 52.8055C200.291 54.7351 198.728 56.3139 196.783 56.3139L196.374 56.3139C194.428 56.3139 192.865 54.7351 192.865 52.8055" transform="matrix(1.00335 0 0 1 452.335 173)"/><path d="M202.447 90.8679 190.71 90.8523 190.725 78.1752 202.447 78.1752ZM209.281 94.5751C209.281 94.5595 209.281 94.5595 209.281 94.5595L209.281 74.4875C209.281 72.4526 207.76 70.7959 205.862 70.7959L187.521 70.7959C187.462 70.7842 187.384 70.7842 187.31 70.7842 186.78 70.7842 186.262 70.9206 185.806 71.1467 184.667 71.7548 183.88 73.014 183.88 74.4875 183.88 74.6083 183.88 74.7136 183.891 74.8344L183.88 94.5439C183.864 96.5944 185.396 98.2317 187.279 98.2472L205.862 98.2628C207.745 98.2628 209.281 96.61 209.281 94.5751" transform="matrix(1.00335 0 0 1 452.335 173)"/><path d="M192.865 139.073 192.865 116.238C192.865 114.312 194.428 112.733 196.374 112.733L196.783 112.733C198.728 112.733 200.291 114.312 200.291 116.238L200.291 139.073C200.291 141.019 198.728 142.582 196.783 142.582L196.374 142.582C194.428 142.582 192.865 141.019 192.865 139.073" transform="matrix(1.00335 0 0 1 452.335 173)"/><path d="M192.865 225.357 192.865 202.521C192.865 200.58 194.428 199.017 196.374 199.017L196.783 199.017C198.728 199.017 200.291 200.58 200.291 202.521L200.291 225.357C200.291 227.302 198.728 228.865 196.783 228.865L196.374 228.865C194.428 228.865 192.865 227.302 192.865 225.357" transform="matrix(1.00335 0 0 1 452.335 173)"/><path d="M164.794 46.5527 153.041 46.5371 153.056 33.8601 164.794 33.8601ZM171.628 50.2405 171.628 30.1529C171.628 28.118 170.092 26.4651 168.209 26.4651L149.868 26.4651C149.794 26.4651 149.716 26.4651 149.642 26.4651 149.111 26.4651 148.593 26.586 148.152 26.8277 146.999 27.4202 146.211 28.6949 146.211 30.1529 146.211 30.2737 146.211 30.3984 146.227 30.5037L146.211 50.2249C146.211 52.2598 147.728 53.9165 149.626 53.9165L168.193 53.9282C170.092 53.9282 171.628 52.2753 171.628 50.2405" transform="matrix(1.00335 0 0 1 452.335 173)"/><path d="M164.794 221.47 153.041 221.47 153.056 208.778 164.794 208.778ZM171.628 225.174C171.628 225.174 171.628 225.174 171.628 225.158L171.628 205.09C171.628 203.055 170.092 201.398 168.209 201.398L149.868 201.398C149.794 201.398 149.716 201.383 149.642 201.383 149.111 201.383 148.593 201.519 148.152 201.765 146.999 202.354 146.211 203.617 146.211 205.09 146.211 205.211 146.211 205.316 146.227 205.437L146.211 225.143C146.211 227.193 147.728 228.85 149.626 228.85L168.193 228.865C170.092 228.865 171.628 227.209 171.628 225.174" transform="matrix(1.00335 0 0 1 452.335 173)"/><path d="M164.794 134.002 153.041 134.002 153.056 121.325 164.794 121.325ZM171.628 137.709C171.628 137.693 171.628 137.693 171.628 137.693L171.628 117.621C171.628 115.587 170.092 113.93 168.209 113.93L149.868 113.93C149.794 113.93 149.716 113.918 149.642 113.918 149.111 113.918 148.593 114.055 148.152 114.296 146.999 114.889 146.211 116.164 146.211 117.621 146.211 117.742 146.211 117.848 146.227 117.968L146.211 137.693C146.211 139.728 147.728 141.381 149.626 141.381L168.193 141.397C170.092 141.397 171.628 139.744 171.628 137.709" transform="matrix(1.00335 0 0 1 452.335 173)"/><path d="M155.197 95.9395 155.197 73.1036C155.197 71.1623 156.775 69.5991 158.705 69.5991L159.13 69.5991C161.06 69.5991 162.638 71.1623 162.638 73.1036L162.638 95.9395C162.638 97.8691 161.06 99.4479 159.13 99.4479L158.705 99.4479C156.775 99.4479 155.197 97.8691 155.197 95.9395" transform="matrix(1.00335 0 0 1 452.335 173)"/><path d="M117.532 52.8055 117.532 29.9579C117.532 28.0283 119.111 26.4651 121.036 26.4651L121.461 26.4651C123.391 26.4651 124.97 28.0283 124.97 29.9579L124.97 52.8055C124.97 54.7351 123.391 56.3139 121.461 56.3139L121.036 56.3139C119.111 56.3139 117.532 54.7351 117.532 52.8055" transform="matrix(1.00335 0 0 1 452.335 173)"/><path d="M127.125 90.8679 115.388 90.8523 115.388 78.1752 127.125 78.1752ZM133.959 94.5751C133.959 94.5595 133.959 94.5595 133.959 94.5595L133.959 74.4875C133.959 72.4526 132.423 70.7959 130.54 70.7959L112.199 70.7959C112.125 70.7842 112.051 70.7842 111.989 70.7842 111.443 70.7842 110.94 70.9206 110.484 71.1467 109.33 71.7548 108.542 73.014 108.542 74.4875 108.542 74.6083 108.558 74.7136 108.558 74.8344L108.542 94.5439C108.542 96.5944 110.074 98.2317 111.957 98.2472L130.54 98.2628C132.423 98.2628 133.959 96.61 133.959 94.5751" transform="matrix(1.00335 0 0 1 452.335 173)"/><path d="M117.532 139.073 117.532 116.238C117.532 114.312 119.111 112.733 121.036 112.733L121.461 112.733C123.391 112.733 124.97 114.312 124.97 116.238L124.97 139.073C124.97 141.019 123.391 142.582 121.461 142.582L121.036 142.582C119.111 142.582 117.532 141.019 117.532 139.073" transform="matrix(1.00335 0 0 1 452.335 173)"/><path d="M117.532 225.357 117.532 202.521C117.532 200.58 119.111 199.017 121.036 199.017L121.461 199.017C123.391 199.017 124.97 200.58 124.97 202.521L124.97 225.357C124.97 227.302 123.391 228.865 121.461 228.865L121.036 228.865C119.111 228.865 117.532 227.302 117.532 225.357" transform="matrix(1.00335 0 0 1 452.335 173)"/><path d="M89.4567 46.5527 77.723 46.5371 77.7347 33.8601 89.4567 33.8601ZM96.2903 50.2405 96.2903 30.1529C96.2903 28.118 94.77 26.4651 92.8716 26.4651L74.5343 26.4651C74.4719 26.4651 74.3978 26.4651 74.3199 26.4651 73.7897 26.4651 73.2712 26.586 72.819 26.8277 71.6769 27.4202 70.8894 28.6949 70.8894 30.1529 70.8894 30.2737 70.8894 30.3984 70.905 30.5037L70.8894 50.2249C70.8738 52.2598 72.4058 53.9165 74.2887 53.9165L92.8716 53.9282C94.7544 53.9282 96.2903 52.2753 96.2903 50.2405" transform="matrix(1.00335 0 0 1 452.335 173)"/><path d="M89.4567 221.47 77.723 221.47 77.7347 208.778 89.4567 208.778ZM96.2903 225.174C96.2903 225.174 96.2903 225.174 96.2903 225.158L96.2903 205.09C96.2903 203.055 94.77 201.398 92.8716 201.398L74.5343 201.398C74.4719 201.398 74.3978 201.383 74.3199 201.383 73.7897 201.383 73.2712 201.519 72.819 201.765 71.6769 202.354 70.8894 203.617 70.8894 205.09 70.8894 205.211 70.8894 205.316 70.905 205.437L70.8894 225.143C70.8738 227.193 72.4058 228.85 74.2887 228.85L92.8716 228.865C94.7544 228.865 96.2903 227.209 96.2903 225.174" transform="matrix(1.00335 0 0 1 452.335 173)"/><path d="M89.4567 134.002 77.723 134.002 77.7347 121.325 89.4567 121.325ZM96.2903 137.709C96.2903 137.693 96.2903 137.693 96.2903 137.693L96.2903 117.621C96.2903 115.587 94.77 113.93 92.8716 113.93L74.5343 113.93C74.4719 113.93 74.3978 113.918 74.3199 113.918 73.7897 113.918 73.2712 114.055 72.819 114.296 71.6769 114.889 70.8894 116.164 70.8894 117.621 70.8894 117.742 70.8894 117.848 70.905 117.968L70.8894 137.693C70.8738 139.728 72.4058 141.381 74.2887 141.381L92.8716 141.397C94.7544 141.397 96.2903 139.744 96.2903 137.709" transform="matrix(1.00335 0 0 1 452.335 173)"/><path d="M79.8788 95.9395 79.8788 73.1036C79.8788 71.1623 81.4419 69.5991 83.3833 69.5991L83.7926 69.5991C85.7378 69.5991 87.301 71.1623 87.301 73.1036L87.301 95.9395C87.301 97.8691 85.7378 99.4479 83.7926 99.4479L83.3833 99.4479C81.4419 99.4479 79.8788 97.8691 79.8788 95.9395" transform="matrix(1.00335 0 0 1 452.335 173)"/><path d="M202.447 177.151 190.71 177.136 190.725 164.459 202.447 164.459ZM209.281 180.843 209.281 160.771C209.281 158.721 207.76 157.064 205.862 157.064L187.521 157.064C187.462 157.064 187.384 157.064 187.31 157.064 186.78 157.064 186.262 157.2 185.806 157.43 184.667 158.038 183.88 159.298 183.88 160.771 183.88 160.876 183.88 160.997 183.891 161.102L183.88 180.827C183.864 182.862 185.396 184.515 187.279 184.515L205.862 184.531C207.745 184.546 209.281 182.89 209.281 180.843" transform="matrix(1.00335 0 0 1 452.335 173)"/><path d="M155.197 182.223 155.197 159.372C155.197 157.446 156.775 155.883 158.705 155.883L159.13 155.883C161.06 155.883 162.638 157.446 162.638 159.372L162.638 182.223C162.638 184.153 161.06 185.731 159.13 185.731L158.705 185.731C156.775 185.731 155.197 184.153 155.197 182.223" transform="matrix(1.00335 0 0 1 452.335 173)"/><path d="M127.125 177.151 115.388 177.136 115.388 164.459 127.125 164.459ZM133.959 180.843 133.959 160.771C133.959 158.721 132.423 157.064 130.54 157.064L112.199 157.064C112.125 157.064 112.051 157.064 111.989 157.064 111.443 157.064 110.94 157.2 110.484 157.43 109.33 158.038 108.542 159.298 108.542 160.771 108.542 160.876 108.558 160.997 108.558 161.102L108.542 180.827C108.542 182.862 110.074 184.515 111.957 184.515L130.54 184.531C132.423 184.546 133.959 182.89 133.959 180.843" transform="matrix(1.00335 0 0 1 452.335 173)"/><path d="M79.8788 182.223 79.8788 159.372C79.8788 157.446 81.4419 155.883 83.3833 155.883L83.7926 155.883C85.7378 155.883 87.301 157.446 87.301 159.372L87.301 182.223C87.301 184.153 85.7378 185.731 83.7926 185.731L83.3833 185.731C81.4419 185.731 79.8788 184.153 79.8788 182.223" transform="matrix(1.00335 0 0 1 452.335 173)"/><path d="M202.447 269.267 190.71 269.251 190.725 256.574 202.447 256.574ZM209.281 272.954C209.281 272.954 209.281 272.954 209.281 272.939L209.281 252.867C209.281 250.832 207.76 249.179 205.862 249.179L187.521 249.179C187.462 249.179 187.384 249.179 187.31 249.179 186.78 249.179 186.262 249.3 185.806 249.542 184.667 250.134 183.88 251.409 183.88 252.867 183.88 252.988 183.88 253.112 183.891 253.218L183.88 272.939C183.864 274.974 185.396 276.631 187.279 276.631L205.862 276.642C207.745 276.642 209.281 274.989 209.281 272.954" transform="matrix(1.00335 0 0 1 452.335 173)"/><path d="M155.197 274.334 155.197 251.487C155.197 249.557 156.775 247.978 158.705 247.978L159.13 247.978C161.06 247.978 162.638 249.557 162.638 251.487L162.638 274.334C162.638 276.264 161.06 277.827 159.13 277.827L158.705 277.827C156.775 277.827 155.197 276.264 155.197 274.334" transform="matrix(1.00335 0 0 1 452.335 173)"/><path d="M127.125 269.267 115.388 269.251 115.388 256.574 127.125 256.574ZM133.959 272.954C133.959 272.954 133.959 272.954 133.959 272.939L133.959 252.867C133.959 250.832 132.423 249.179 130.54 249.179L112.199 249.179C112.125 249.179 112.051 249.179 111.989 249.179 111.443 249.179 110.94 249.3 110.484 249.542 109.33 250.134 108.542 251.409 108.542 252.867 108.542 252.988 108.558 253.112 108.558 253.218L108.542 272.939C108.542 274.974 110.074 276.631 111.957 276.631L130.54 276.642C132.423 276.642 133.959 274.989 133.959 272.954" transform="matrix(1.00335 0 0 1 452.335 173)"/><path d="M79.8788 274.334 79.8788 251.487C79.8788 249.557 81.4419 247.978 83.3833 247.978L83.7926 247.978C85.7378 247.978 87.301 249.557 87.301 251.487L87.301 274.334C87.301 276.264 85.7378 277.827 83.7926 277.827L83.3833 277.827C81.4419 277.827 79.8788 276.264 79.8788 274.334" transform="matrix(1.00335 0 0 1 452.335 173)"/><path d="M315.422 46.5527 303.684 46.5371 303.7 33.8601 315.422 33.8601ZM322.252 50.2405 322.252 30.1529C322.252 28.118 320.735 26.4651 318.837 26.4651L300.496 26.4651C300.421 26.4651 300.359 26.4651 300.285 26.4651 299.751 26.4651 299.236 26.586 298.78 26.8277 297.642 27.4202 296.851 28.6949 296.851 30.1529 296.851 30.2737 296.851 30.3984 296.866 30.5037L296.851 50.2249C296.839 52.2598 298.371 53.9165 300.254 53.9165L318.837 53.9282C320.72 53.9282 322.252 52.2753 322.252 50.2405" transform="matrix(1.00335 0 0 1 452.335 173)"/><path d="M315.422 221.47 303.684 221.47 303.7 208.778 315.422 208.778ZM322.252 225.174C322.252 225.174 322.252 225.174 322.252 225.158L322.252 205.09C322.252 203.055 320.735 201.398 318.837 201.398L300.496 201.398C300.421 201.398 300.359 201.383 300.285 201.383 299.751 201.383 299.236 201.519 298.78 201.765 297.642 202.354 296.851 203.617 296.851 205.09 296.851 205.211 296.851 205.316 296.866 205.437L296.851 225.143C296.839 227.193 298.371 228.85 300.254 228.85L318.837 228.865C320.72 228.865 322.252 227.209 322.252 225.174" transform="matrix(1.00335 0 0 1 452.335 173)"/><path d="M315.422 134.002 303.684 134.002 303.7 121.325 315.422 121.325ZM322.252 137.709C322.252 137.693 322.252 137.693 322.252 137.693L322.252 117.621C322.252 115.587 320.735 113.93 318.837 113.93L300.496 113.93C300.421 113.93 300.359 113.918 300.285 113.918 299.751 113.918 299.236 114.055 298.78 114.296 297.642 114.889 296.851 116.164 296.851 117.621 296.851 117.742 296.851 117.848 296.866 117.968L296.851 137.693C296.839 139.728 298.371 141.381 300.254 141.381L318.837 141.397C320.72 141.397 322.252 139.744 322.252 137.709" transform="matrix(1.00335 0 0 1 452.335 173)"/><path d="M305.84 95.9395 305.84 73.1036C305.84 71.1623 307.403 69.5991 309.348 69.5991L309.758 69.5991C311.699 69.5991 313.266 71.1623 313.266 73.1036L313.266 95.9395C313.266 97.8691 311.699 99.4479 309.758 99.4479L309.348 99.4479C307.403 99.4479 305.84 97.8691 305.84 95.9395" transform="matrix(1.00335 0 0 1 452.335 173)"/><path d="M268.171 52.8055 268.171 29.9579C268.171 28.0283 269.75 26.4651 271.68 26.4651L272.105 26.4651C274.034 26.4651 275.613 28.0283 275.613 29.9579L275.613 52.8055C275.613 54.7351 274.034 56.3139 272.105 56.3139L271.68 56.3139C269.75 56.3139 268.171 54.7351 268.171 52.8055" transform="matrix(1.00335 0 0 1 452.335 173)"/><path d="M277.769 90.8679 266.016 90.8523 266.031 78.1752 277.769 78.1752ZM284.599 94.5751C284.599 94.5595 284.599 94.5595 284.599 94.5595L284.599 74.4875C284.599 72.4526 283.066 70.7959 281.184 70.7959L262.842 70.7959C262.768 70.7842 262.69 70.7842 262.616 70.7842 262.082 70.7842 261.568 70.9206 261.127 71.1467 259.973 71.7548 259.186 73.014 259.186 74.4875 259.186 74.6083 259.186 74.7136 259.198 74.8344L259.186 94.5439C259.186 96.5944 260.718 98.2317 262.601 98.2472L281.168 98.2628C283.066 98.2628 284.599 96.61 284.599 94.5751" transform="matrix(1.00335 0 0 1 452.335 173)"/><path d="M268.171 139.073 268.171 116.238C268.171 114.312 269.75 112.733 271.68 112.733L272.105 112.733C274.034 112.733 275.613 114.312 275.613 116.238L275.613 139.073C275.613 141.019 274.034 142.582 272.105 142.582L271.68 142.582C269.75 142.582 268.171 141.019 268.171 139.073" transform="matrix(1.00335 0 0 1 452.335 173)"/><path d="M268.171 225.357 268.171 202.521C268.171 200.58 269.75 199.017 271.68 199.017L272.105 199.017C274.034 199.017 275.613 200.58 275.613 202.521L275.613 225.357C275.613 227.302 274.034 228.865 272.105 228.865L271.68 228.865C269.75 228.865 268.171 227.302 268.171 225.357" transform="matrix(1.00335 0 0 1 452.335 173)"/><path d="M240.1 46.5527 228.363 46.5371 228.363 33.8601 240.1 33.8601ZM246.93 50.2405 246.93 30.1529C246.93 28.118 245.398 26.4651 243.515 26.4651L225.174 26.4651C225.1 26.4651 225.022 26.4651 224.963 26.4651 224.418 26.4651 223.915 26.586 223.459 26.8277 222.305 27.4202 221.517 28.6949 221.517 30.1529 221.517 30.2737 221.533 30.3984 221.533 30.5037L221.517 50.2249C221.517 52.2598 223.049 53.9165 224.932 53.9165L243.515 53.9282C245.398 53.9282 246.93 52.2753 246.93 50.2405" transform="matrix(1.00335 0 0 1 452.335 173)"/><path d="M240.1 221.47 228.363 221.47 228.363 208.778 240.1 208.778ZM246.93 225.174C246.93 225.174 246.93 225.174 246.93 225.158L246.93 205.09C246.93 203.055 245.398 201.398 243.515 201.398L225.174 201.398C225.1 201.398 225.022 201.383 224.963 201.383 224.418 201.383 223.915 201.519 223.459 201.765 222.305 202.354 221.517 203.617 221.517 205.09 221.517 205.211 221.533 205.316 221.533 205.437L221.517 225.143C221.517 227.193 223.049 228.85 224.932 228.85L243.515 228.865C245.398 228.865 246.93 227.209 246.93 225.174" transform="matrix(1.00335 0 0 1 452.335 173)"/><path d="M240.1 134.002 228.363 134.002 228.363 121.325 240.1 121.325ZM246.93 137.709C246.93 137.693 246.93 137.693 246.93 137.693L246.93 117.621C246.93 115.587 245.398 113.93 243.515 113.93L225.174 113.93C225.1 113.93 225.022 113.918 224.963 113.918 224.418 113.918 223.915 114.055 223.459 114.296 222.305 114.889 221.517 116.164 221.517 117.621 221.517 117.742 221.533 117.848 221.533 117.968L221.517 137.693C221.517 139.728 223.049 141.381 224.932 141.381L243.515 141.397C245.398 141.397 246.93 139.744 246.93 137.709" transform="matrix(1.00335 0 0 1 452.335 173)"/><path d="M230.503 95.9395 230.503 73.1036C230.503 71.1623 232.081 69.5991 234.011 69.5991L234.436 69.5991C236.366 69.5991 237.944 71.1623 237.944 73.1036L237.944 95.9395C237.944 97.8691 236.366 99.4479 234.436 99.4479L234.011 99.4479C232.081 99.4479 230.503 97.8691 230.503 95.9395" transform="matrix(1.00335 0 0 1 452.335 173)"/><path d="M305.84 182.223 305.84 159.372C305.84 157.446 307.403 155.883 309.348 155.883L309.758 155.883C311.699 155.883 313.266 157.446 313.266 159.372L313.266 182.223C313.266 184.153 311.699 185.731 309.758 185.731L309.348 185.731C307.403 185.731 305.84 184.153 305.84 182.223" transform="matrix(1.00335 0 0 1 452.335 173)"/><path d="M277.769 177.151 266.016 177.136 266.031 164.459 277.769 164.459ZM284.599 180.843 284.599 160.771C284.599 158.721 283.066 157.064 281.184 157.064L262.842 157.064C262.768 157.064 262.69 157.064 262.616 157.064 262.082 157.064 261.568 157.2 261.127 157.43 259.973 158.038 259.186 159.298 259.186 160.771 259.186 160.876 259.186 160.997 259.198 161.102L259.186 180.827C259.186 182.862 260.718 184.515 262.601 184.515L281.168 184.531C283.066 184.546 284.599 182.89 284.599 180.843" transform="matrix(1.00335 0 0 1 452.335 173)"/><path d="M230.503 182.223 230.503 159.372C230.503 157.446 232.081 155.883 234.011 155.883L234.436 155.883C236.366 155.883 237.944 157.446 237.944 159.372L237.944 182.223C237.944 184.153 236.366 185.731 234.436 185.731L234.011 185.731C232.081 185.731 230.503 184.153 230.503 182.223" transform="matrix(1.00335 0 0 1 452.335 173)"/><path d="M305.84 274.334 305.84 251.487C305.84 249.557 307.403 247.978 309.348 247.978L309.758 247.978C311.699 247.978 313.266 249.557 313.266 251.487L313.266 274.334C313.266 276.264 311.699 277.827 309.758 277.827L309.348 277.827C307.403 277.827 305.84 276.264 305.84 274.334" transform="matrix(1.00335 0 0 1 452.335 173)"/><path d="M277.769 269.267 266.016 269.251 266.031 256.574 277.769 256.574ZM284.599 272.954C284.599 272.954 284.599 272.954 284.599 272.939L284.599 252.867C284.599 250.832 283.066 249.179 281.184 249.179L262.842 249.179C262.768 249.179 262.69 249.179 262.616 249.179 262.082 249.179 261.568 249.3 261.127 249.542 259.973 250.134 259.186 251.409 259.186 252.867 259.186 252.988 259.186 253.112 259.198 253.218L259.186 272.939C259.186 274.974 260.718 276.631 262.601 276.631L281.168 276.642C283.066 276.642 284.599 274.989 284.599 272.954" transform="matrix(1.00335 0 0 1 452.335 173)"/><path d="M230.503 274.334 230.503 251.487C230.503 249.557 232.081 247.978 234.011 247.978L234.436 247.978C236.366 247.978 237.944 249.557 237.944 251.487L237.944 274.334C237.944 276.264 236.366 277.827 234.436 277.827L234.011 277.827C232.081 277.827 230.503 276.264 230.503 274.334" transform="matrix(1.00335 0 0 1 452.335 173)"/><g clip-path="url(#clip1)"><path d="M57.651 291.07 335.494 291.07 335.494 13.2267 57.651 13.2267ZM343.099 298.675 50.0417 298.675 50.0417 5.61736 343.099 5.61736 343.099 298.675" transform="matrix(1.00335 0 0 1 452.335 173)"/></g><path d="M186.71 47.192 186.71 24.3406C186.71 22.411 188.273 20.8478 190.218 20.8478L190.628 20.8478C192.573 20.8478 194.136 22.411 194.136 24.3406L194.136 47.192C194.136 49.1178 192.573 50.6966 190.628 50.6966L190.218 50.6966C188.273 50.6966 186.71 49.1178 186.71 47.192" fill="#616161" transform="matrix(1.00335 0 0 1 452.335 173)"/><path d="M196.292 85.2544 184.554 85.2388 184.57 72.5618 196.292 72.5618ZM203.125 88.9577C203.125 88.9422 203.125 88.9422 203.125 88.9422L203.125 68.8701C203.125 66.8353 201.605 65.1824 199.707 65.1824L181.365 65.1824C181.307 65.1668 181.229 65.1668 181.155 65.1668 180.625 65.1668 180.106 65.3032 179.65 65.5332 178.512 66.1375 177.724 67.4005 177.724 68.8701 177.724 68.9949 177.724 69.1001 177.74 69.221L177.724 88.9266C177.709 90.977 179.241 92.6182 181.124 92.6338L199.707 92.6494C201.589 92.6494 203.125 90.9926 203.125 88.9577" fill="#616161" transform="matrix(1.00335 0 0 1 452.335 173)"/><path d="M186.71 133.46 186.71 110.624C186.71 108.695 188.273 107.116 190.218 107.116L190.628 107.116C192.573 107.116 194.136 108.695 194.136 110.624L194.136 133.46C194.136 135.401 192.573 136.965 190.628 136.965L190.218 136.965C188.273 136.965 186.71 135.401 186.71 133.46" fill="#616161" transform="matrix(1.00335 0 0 1 452.335 173)"/><path d="M186.71 219.74 186.71 196.908C186.71 194.962 188.273 193.399 190.218 193.399L190.628 193.399C192.573 193.399 194.136 194.962 194.136 196.908L194.136 219.74C194.136 221.685 192.573 223.248 190.628 223.248L190.218 223.248C188.273 223.248 186.71 221.685 186.71 219.74" fill="#616161" transform="matrix(1.00335 0 0 1 452.335 173)"/><path d="M158.639 40.9354 146.886 40.9198 146.901 28.2427 158.639 28.2427ZM165.472 44.6231 165.472 24.5394C165.472 22.5045 163.936 20.8478 162.054 20.8478L143.712 20.8478C143.638 20.8478 143.56 20.8478 143.486 20.8478 142.956 20.8478 142.438 20.9686 141.997 21.2142 140.843 21.8067 140.056 23.0815 140.056 24.5394 140.056 24.6602 140.056 24.7811 140.071 24.8863L140.056 44.6114C140.056 46.6424 141.572 48.2991 143.471 48.2991L162.038 48.3147C163.936 48.3147 165.472 46.658 165.472 44.6231" fill="#616161" transform="matrix(1.00335 0 0 1 452.335 173)"/><path d="M158.639 215.853 146.886 215.853 146.901 203.16 158.639 203.16ZM165.472 219.56C165.472 219.56 165.472 219.56 165.472 219.545L165.472 199.473C165.472 197.438 163.936 195.785 162.054 195.785L143.712 195.785C143.638 195.785 143.56 195.769 143.486 195.769 142.956 195.769 142.438 195.906 141.997 196.148 140.843 196.74 140.056 197.999 140.056 199.473 140.056 199.594 140.056 199.699 140.071 199.824L140.056 219.529C140.056 221.58 141.572 223.232 143.471 223.232L162.038 223.248C163.936 223.248 165.472 221.595 165.472 219.56" fill="#616161" transform="matrix(1.00335 0 0 1 452.335 173)"/><path d="M158.639 128.388 146.886 128.388 146.901 115.711 158.639 115.711ZM165.472 132.092C165.472 132.076 165.472 132.076 165.472 132.076L165.472 112.004C165.472 109.969 163.936 108.316 162.054 108.316L143.712 108.316C143.638 108.316 143.56 108.301 143.486 108.301 142.956 108.301 142.438 108.437 141.997 108.679 140.843 109.271 140.056 110.546 140.056 112.004 140.056 112.129 140.056 112.234 140.071 112.355L140.056 132.076C140.056 134.111 141.572 135.768 143.471 135.768L162.038 135.783C163.936 135.783 165.472 134.127 165.472 132.092" fill="#616161" transform="matrix(1.00335 0 0 1 452.335 173)"/><path d="M149.041 90.326 149.041 67.4902C149.041 65.5449 150.624 63.9817 152.55 63.9817L152.975 63.9817C154.904 63.9817 156.483 65.5449 156.483 67.4902L156.483 90.326C156.483 92.2518 154.904 93.8305 152.975 93.8305L152.55 93.8305C150.624 93.8305 149.041 92.2518 149.041 90.326" fill="#616161" transform="matrix(1.00335 0 0 1 452.335 173)"/><path d="M111.377 47.192 111.377 24.3406C111.377 22.411 112.955 20.8478 114.881 20.8478L115.306 20.8478C117.236 20.8478 118.814 22.411 118.814 24.3406L118.814 47.192C118.814 49.1178 117.236 50.6966 115.306 50.6966L114.881 50.6966C112.955 50.6966 111.377 49.1178 111.377 47.192" fill="#616161" transform="matrix(1.00335 0 0 1 452.335 173)"/><path d="M120.97 85.2544 109.232 85.2388 109.232 72.5618 120.97 72.5618ZM127.804 88.9577C127.804 88.9422 127.804 88.9422 127.804 88.9422L127.804 68.8701C127.804 66.8353 126.268 65.1824 124.385 65.1824L106.048 65.1824C105.97 65.1668 105.896 65.1668 105.833 65.1668 105.287 65.1668 104.785 65.3032 104.328 65.5332 103.175 66.1375 102.387 67.4005 102.387 68.8701 102.387 68.9949 102.403 69.1001 102.403 69.221L102.387 88.9266C102.387 90.977 103.919 92.6182 105.802 92.6338L124.385 92.6494C126.268 92.6494 127.804 90.9926 127.804 88.9577" fill="#616161" transform="matrix(1.00335 0 0 1 452.335 173)"/><path d="M111.377 133.46 111.377 110.624C111.377 108.695 112.955 107.116 114.881 107.116L115.306 107.116C117.236 107.116 118.814 108.695 118.814 110.624L118.814 133.46C118.814 135.401 117.236 136.965 115.306 136.965L114.881 136.965C112.955 136.965 111.377 135.401 111.377 133.46" fill="#616161" transform="matrix(1.00335 0 0 1 452.335 173)"/><path d="M111.377 219.74 111.377 196.908C111.377 194.962 112.955 193.399 114.881 193.399L115.306 193.399C117.236 193.399 118.814 194.962 118.814 196.908L118.814 219.74C118.814 221.685 117.236 223.248 115.306 223.248L114.881 223.248C112.955 223.248 111.377 221.685 111.377 219.74" fill="#616161" transform="matrix(1.00335 0 0 1 452.335 173)"/><path d="M83.3014 40.9354 71.5677 40.9198 71.5794 28.2427 83.3014 28.2427ZM90.135 44.6231 90.135 24.5394C90.135 22.5045 88.6147 20.8478 86.7202 20.8478L68.379 20.8478C68.3166 20.8478 68.2425 20.8478 68.1646 20.8478 67.6344 20.8478 67.1159 20.9686 66.6637 21.2142 65.5216 21.8067 64.7341 23.0815 64.7341 24.5394 64.7341 24.6602 64.7341 24.7811 64.7497 24.8863L64.7341 44.6114C64.7185 46.6424 66.2505 48.2991 68.1334 48.2991L86.7202 48.3147C88.5991 48.3147 90.135 46.658 90.135 44.6231" fill="#616161" transform="matrix(1.00335 0 0 1 452.335 173)"/><path d="M83.3014 215.853 71.5677 215.853 71.5794 203.16 83.3014 203.16ZM90.135 219.56C90.135 219.56 90.135 219.56 90.135 219.545L90.135 199.473C90.135 197.438 88.6147 195.785 86.7202 195.785L68.379 195.785C68.3166 195.785 68.2425 195.769 68.1646 195.769 67.6344 195.769 67.1159 195.906 66.6637 196.148 65.5216 196.74 64.7341 197.999 64.7341 199.473 64.7341 199.594 64.7341 199.699 64.7497 199.824L64.7341 219.529C64.7185 221.58 66.2505 223.232 68.1334 223.232L86.7202 223.248C88.5991 223.248 90.135 221.595 90.135 219.56" fill="#616161" transform="matrix(1.00335 0 0 1 452.335 173)"/><path d="M83.3014 128.388 71.5677 128.388 71.5794 115.711 83.3014 115.711ZM90.135 132.092C90.135 132.076 90.135 132.076 90.135 132.076L90.135 112.004C90.135 109.969 88.6147 108.316 86.7202 108.316L68.379 108.316C68.3166 108.316 68.2425 108.301 68.1646 108.301 67.6344 108.301 67.1159 108.437 66.6637 108.679 65.5216 109.271 64.7341 110.546 64.7341 112.004 64.7341 112.129 64.7341 112.234 64.7497 112.355L64.7341 132.076C64.7185 134.111 66.2505 135.768 68.1334 135.768L86.7202 135.783C88.5991 135.783 90.135 134.127 90.135 132.092" fill="#616161" transform="matrix(1.00335 0 0 1 452.335 173)"/><path d="M73.7234 90.326 73.7234 67.4902C73.7234 65.5449 75.2866 63.9817 77.228 63.9817L77.6373 63.9817C79.5825 63.9817 81.1457 65.5449 81.1457 67.4902L81.1457 90.326C81.1457 92.2518 79.5825 93.8305 77.6373 93.8305L77.228 93.8305C75.2866 93.8305 73.7234 92.2518 73.7234 90.326" fill="#616161" transform="matrix(1.00335 0 0 1 452.335 173)"/><path d="M196.292 171.538 184.554 171.522 184.57 158.845 196.292 158.845ZM203.125 175.226 203.125 155.154C203.125 153.103 201.605 151.45 199.707 151.45L181.365 151.45C181.307 151.45 181.229 151.45 181.155 151.45 180.625 151.45 180.106 151.587 179.65 151.813 178.512 152.421 177.724 153.68 177.724 155.154 177.724 155.259 177.724 155.384 177.74 155.489L177.724 175.21C177.709 177.245 179.241 178.902 181.124 178.902L199.707 178.917C201.589 178.929 203.125 177.276 203.125 175.226" fill="#616161" transform="matrix(1.00335 0 0 1 452.335 173)"/><path d="M149.041 176.61 149.041 153.758C149.041 151.828 150.624 150.265 152.55 150.265L152.975 150.265C154.904 150.265 156.483 151.828 156.483 153.758L156.483 176.61C156.483 178.535 154.904 180.114 152.975 180.114L152.55 180.114C150.624 180.114 149.041 178.535 149.041 176.61" fill="#616161" transform="matrix(1.00335 0 0 1 452.335 173)"/><path d="M120.97 171.538 109.232 171.522 109.232 158.845 120.97 158.845ZM127.804 175.226 127.804 155.154C127.804 153.103 126.268 151.45 124.385 151.45L106.048 151.45C105.97 151.45 105.896 151.45 105.833 151.45 105.287 151.45 104.785 151.587 104.328 151.813 103.175 152.421 102.387 153.68 102.387 155.154 102.387 155.259 102.403 155.384 102.403 155.489L102.387 175.21C102.387 177.245 103.919 178.902 105.802 178.902L124.385 178.917C126.268 178.929 127.804 177.276 127.804 175.226" fill="#616161" transform="matrix(1.00335 0 0 1 452.335 173)"/><path d="M73.7234 176.61 73.7234 153.758C73.7234 151.828 75.2866 150.265 77.228 150.265L77.6373 150.265C79.5825 150.265 81.1457 151.828 81.1457 153.758L81.1457 176.61C81.1457 178.535 79.5825 180.114 77.6373 180.114L77.228 180.114C75.2866 180.114 73.7234 178.535 73.7234 176.61" fill="#616161" transform="matrix(1.00335 0 0 1 452.335 173)"/><path d="M196.292 263.649 184.554 263.634 184.57 250.957 196.292 250.957ZM203.125 267.341C203.125 267.341 203.125 267.341 203.125 267.325L203.125 247.253C203.125 245.219 201.605 243.562 199.707 243.562L181.365 243.562C181.307 243.562 181.229 243.562 181.155 243.562 180.625 243.562 180.106 243.687 179.65 243.928 178.512 244.521 177.724 245.795 177.724 247.253 177.724 247.374 177.724 247.495 177.74 247.6L177.724 267.325C177.709 269.36 179.241 271.013 181.124 271.013L199.707 271.029C201.589 271.029 203.125 269.372 203.125 267.341" fill="#616161" transform="matrix(1.00335 0 0 1 452.335 173)"/><path d="M149.041 268.721 149.041 245.87C149.041 243.944 150.624 242.365 152.55 242.365L152.975 242.365C154.904 242.365 156.483 243.944 156.483 245.87L156.483 268.721C156.483 270.651 154.904 272.214 152.975 272.214L152.55 272.214C150.624 272.214 149.041 270.651 149.041 268.721" fill="#616161" transform="matrix(1.00335 0 0 1 452.335 173)"/><path d="M120.97 263.649 109.232 263.634 109.232 250.957 120.97 250.957ZM127.804 267.341C127.804 267.341 127.804 267.341 127.804 267.325L127.804 247.253C127.804 245.219 126.268 243.562 124.385 243.562L106.048 243.562C105.97 243.562 105.896 243.562 105.833 243.562 105.287 243.562 104.785 243.687 104.328 243.928 103.175 244.521 102.387 245.795 102.387 247.253 102.387 247.374 102.403 247.495 102.403 247.6L102.387 267.325C102.387 269.36 103.919 271.013 105.802 271.013L124.385 271.029C126.268 271.029 127.804 269.372 127.804 267.341" fill="#616161" transform="matrix(1.00335 0 0 1 452.335 173)"/><path d="M73.7234 268.721 73.7234 245.87C73.7234 243.944 75.2866 242.365 77.228 242.365L77.6373 242.365C79.5825 242.365 81.1457 243.944 81.1457 245.87L81.1457 268.721C81.1457 270.651 79.5825 272.214 77.6373 272.214L77.228 272.214C75.2866 272.214 73.7234 270.651 73.7234 268.721" fill="#616161" transform="matrix(1.00335 0 0 1 452.335 173)"/><path d="M309.267 40.9354 297.529 40.9198 297.545 28.2427 309.267 28.2427ZM316.096 44.6231 316.096 24.5394C316.096 22.5045 314.58 20.8478 312.681 20.8478L294.34 20.8478C294.266 20.8478 294.204 20.8478 294.13 20.8478 293.596 20.8478 293.081 20.9686 292.625 21.2142 291.487 21.8067 290.695 23.0815 290.695 24.5394 290.695 24.6602 290.695 24.7811 290.711 24.8863L290.695 44.6114C290.684 46.6424 292.216 48.2991 294.099 48.2991L312.681 48.3147C314.564 48.3147 316.096 46.658 316.096 44.6231" fill="#616161" transform="matrix(1.00335 0 0 1 452.335 173)"/><path d="M309.267 215.853 297.529 215.853 297.545 203.16 309.267 203.16ZM316.096 219.56C316.096 219.56 316.096 219.56 316.096 219.545L316.096 199.473C316.096 197.438 314.58 195.785 312.681 195.785L294.34 195.785C294.266 195.785 294.204 195.769 294.13 195.769 293.596 195.769 293.081 195.906 292.625 196.148 291.487 196.74 290.695 197.999 290.695 199.473 290.695 199.594 290.695 199.699 290.711 199.824L290.695 219.529C290.684 221.58 292.216 223.232 294.099 223.232L312.681 223.248C314.564 223.248 316.096 221.595 316.096 219.56" fill="#616161" transform="matrix(1.00335 0 0 1 452.335 173)"/><path d="M309.267 128.388 297.529 128.388 297.545 115.711 309.267 115.711ZM316.096 132.092C316.096 132.076 316.096 132.076 316.096 132.076L316.096 112.004C316.096 109.969 314.58 108.316 312.681 108.316L294.34 108.316C294.266 108.316 294.204 108.301 294.13 108.301 293.596 108.301 293.081 108.437 292.625 108.679 291.487 109.271 290.695 110.546 290.695 112.004 290.695 112.129 290.695 112.234 290.711 112.355L290.695 132.076C290.684 134.111 292.216 135.768 294.099 135.768L312.681 135.783C314.564 135.783 316.096 134.127 316.096 132.092" fill="#616161" transform="matrix(1.00335 0 0 1 452.335 173)"/><path d="M299.685 90.326 299.685 67.4902C299.685 65.5449 301.248 63.9817 303.193 63.9817L303.602 63.9817C305.548 63.9817 307.111 65.5449 307.111 67.4902L307.111 90.326C307.111 92.2518 305.548 93.8305 303.602 93.8305L303.193 93.8305C301.248 93.8305 299.685 92.2518 299.685 90.326" fill="#616161" transform="matrix(1.00335 0 0 1 452.335 173)"/><path d="M262.016 47.192 262.016 24.3406C262.016 22.411 263.595 20.8478 265.524 20.8478L265.949 20.8478C267.879 20.8478 269.458 22.411 269.458 24.3406L269.458 47.192C269.458 49.1178 267.879 50.6966 265.949 50.6966L265.524 50.6966C263.595 50.6966 262.016 49.1178 262.016 47.192" fill="#616161" transform="matrix(1.00335 0 0 1 452.335 173)"/><path d="M271.613 85.2544 259.86 85.2388 259.876 72.5618 271.613 72.5618ZM278.443 88.9577C278.443 88.9422 278.443 88.9422 278.443 88.9422L278.443 68.8701C278.443 66.8353 276.911 65.1824 275.028 65.1824L256.687 65.1824C256.613 65.1668 256.535 65.1668 256.461 65.1668 255.927 65.1668 255.412 65.3032 254.972 65.5332 253.818 66.1375 253.031 67.4005 253.031 68.8701 253.031 68.9949 253.031 69.1001 253.042 69.221L253.031 88.9266C253.031 90.977 254.563 92.6182 256.445 92.6338L275.013 92.6494C276.911 92.6494 278.443 90.9926 278.443 88.9577" fill="#616161" transform="matrix(1.00335 0 0 1 452.335 173)"/><path d="M262.016 133.46 262.016 110.624C262.016 108.695 263.595 107.116 265.524 107.116L265.949 107.116C267.879 107.116 269.458 108.695 269.458 110.624L269.458 133.46C269.458 135.401 267.879 136.965 265.949 136.965L265.524 136.965C263.595 136.965 262.016 135.401 262.016 133.46" fill="#616161" transform="matrix(1.00335 0 0 1 452.335 173)"/><path d="M262.016 219.74 262.016 196.908C262.016 194.962 263.595 193.399 265.524 193.399L265.949 193.399C267.879 193.399 269.458 194.962 269.458 196.908L269.458 219.74C269.458 221.685 267.879 223.248 265.949 223.248L265.524 223.248C263.595 223.248 262.016 221.685 262.016 219.74" fill="#616161" transform="matrix(1.00335 0 0 1 452.335 173)"/><path d="M233.945 40.9354 222.207 40.9198 222.207 28.2427 233.945 28.2427ZM240.778 44.6231 240.778 24.5394C240.778 22.5045 239.243 20.8478 237.36 20.8478L219.018 20.8478C218.944 20.8478 218.866 20.8478 218.808 20.8478 218.262 20.8478 217.759 20.9686 217.303 21.2142 216.149 21.8067 215.362 23.0815 215.362 24.5394 215.362 24.6602 215.378 24.7811 215.378 24.8863L215.362 44.6114C215.362 46.6424 216.894 48.2991 218.777 48.2991L237.36 48.3147C239.243 48.3147 240.778 46.658 240.778 44.6231" fill="#616161" transform="matrix(1.00335 0 0 1 452.335 173)"/><path d="M233.945 215.853 222.207 215.853 222.207 203.16 233.945 203.16ZM240.778 219.56C240.778 219.56 240.778 219.56 240.778 219.545L240.778 199.473C240.778 197.438 239.243 195.785 237.36 195.785L219.018 195.785C218.944 195.785 218.866 195.769 218.808 195.769 218.262 195.769 217.759 195.906 217.303 196.148 216.149 196.74 215.362 197.999 215.362 199.473 215.362 199.594 215.378 199.699 215.378 199.824L215.362 219.529C215.362 221.58 216.894 223.232 218.777 223.232L237.36 223.248C239.243 223.248 240.778 221.595 240.778 219.56" fill="#616161" transform="matrix(1.00335 0 0 1 452.335 173)"/><path d="M233.945 128.388 222.207 128.388 222.207 115.711 233.945 115.711ZM240.778 132.092C240.778 132.076 240.778 132.076 240.778 132.076L240.778 112.004C240.778 109.969 239.243 108.316 237.36 108.316L219.018 108.316C218.944 108.316 218.866 108.301 218.808 108.301 218.262 108.301 217.759 108.437 217.303 108.679 216.149 109.271 215.362 110.546 215.362 112.004 215.362 112.129 215.378 112.234 215.378 112.355L215.362 132.076C215.362 134.111 216.894 135.768 218.777 135.768L237.36 135.783C239.243 135.783 240.778 134.127 240.778 132.092" fill="#616161" transform="matrix(1.00335 0 0 1 452.335 173)"/><path d="M224.347 90.326 224.347 67.4902C224.347 65.5449 225.926 63.9817 227.856 63.9817L228.281 63.9817C230.21 63.9817 231.789 65.5449 231.789 67.4902L231.789 90.326C231.789 92.2518 230.21 93.8305 228.281 93.8305L227.856 93.8305C225.926 93.8305 224.347 92.2518 224.347 90.326" fill="#616161" transform="matrix(1.00335 0 0 1 452.335 173)"/><path d="M299.685 176.61 299.685 153.758C299.685 151.828 301.248 150.265 303.193 150.265L303.602 150.265C305.548 150.265 307.111 151.828 307.111 153.758L307.111 176.61C307.111 178.535 305.548 180.114 303.602 180.114L303.193 180.114C301.248 180.114 299.685 178.535 299.685 176.61" fill="#616161" transform="matrix(1.00335 0 0 1 452.335 173)"/><path d="M271.613 171.538 259.86 171.522 259.876 158.845 271.613 158.845ZM278.443 175.226 278.443 155.154C278.443 153.103 276.911 151.45 275.028 151.45L256.687 151.45C256.613 151.45 256.535 151.45 256.461 151.45 255.927 151.45 255.412 151.587 254.972 151.813 253.818 152.421 253.031 153.68 253.031 155.154 253.031 155.259 253.031 155.384 253.042 155.489L253.031 175.21C253.031 177.245 254.563 178.902 256.445 178.902L275.013 178.917C276.911 178.929 278.443 177.276 278.443 175.226" fill="#616161" transform="matrix(1.00335 0 0 1 452.335 173)"/><path d="M224.347 176.61 224.347 153.758C224.347 151.828 225.926 150.265 227.856 150.265L228.281 150.265C230.21 150.265 231.789 151.828 231.789 153.758L231.789 176.61C231.789 178.535 230.21 180.114 228.281 180.114L227.856 180.114C225.926 180.114 224.347 178.535 224.347 176.61" fill="#616161" transform="matrix(1.00335 0 0 1 452.335 173)"/><path d="M299.685 268.721 299.685 245.87C299.685 243.944 301.248 242.365 303.193 242.365L303.602 242.365C305.548 242.365 307.111 243.944 307.111 245.87L307.111 268.721C307.111 270.651 305.548 272.214 303.602 272.214L303.193 272.214C301.248 272.214 299.685 270.651 299.685 268.721" fill="#616161" transform="matrix(1.00335 0 0 1 452.335 173)"/><path d="M271.613 263.649 259.86 263.634 259.876 250.957 271.613 250.957ZM278.443 267.341C278.443 267.341 278.443 267.341 278.443 267.325L278.443 247.253C278.443 245.219 276.911 243.562 275.028 243.562L256.687 243.562C256.613 243.562 256.535 243.562 256.461 243.562 255.927 243.562 255.412 243.687 254.972 243.928 253.818 244.521 253.031 245.795 253.031 247.253 253.031 247.374 253.031 247.495 253.042 247.6L253.031 267.325C253.031 269.36 254.563 271.013 256.445 271.013L275.013 271.029C276.911 271.029 278.443 269.372 278.443 267.341" fill="#616161" transform="matrix(1.00335 0 0 1 452.335 173)"/><path d="M224.347 268.721 224.347 245.87C224.347 243.944 225.926 242.365 227.856 242.365L228.281 242.365C230.21 242.365 231.789 243.944 231.789 245.87L231.789 268.721C231.789 270.651 230.21 272.214 228.281 272.214L227.856 272.214C225.926 272.214 224.347 270.651 224.347 268.721" fill="#616161" transform="matrix(1.00335 0 0 1 452.335 173)"/><g clip-path="url(#clip2)"><path d="M51.4957 285.452 329.339 285.452 329.339 7.60936 51.4957 7.60936ZM336.944 293.058 43.8863 293.058 43.8863 0.00389824 336.944 0.00389824 336.944 293.058" fill="#616161" transform="matrix(1.00335 0 0 1 452.335 173)"/></g><path d="M18.2593 0.424907C24.555 0.424907 30.0086-3.12249 32.7062-8.30714L26.6717-11.4296C25.1397-8.41629 22.0172-6.4048 18.2593-6.4048 12.9149-6.4048 8.8373-10.533 8.8373-15.8775 8.8373-21.222 12.9149-25.3502 18.2593-25.3502 22.0172-25.3502 25.1397-23.3387 26.6717-20.3215L32.7062-23.444C30.0086-28.6325 24.555-32.176 18.2593-32.176 9.26221-32.176 1.95691-24.8746 1.95691-15.8775 1.95691-6.88039 9.26221 0.424907 18.2593 0.424907Z" transform="matrix(1.00335 0 0 1 525.862 533.397)"/><path d="M18.2593 0.424907C27.3071 0.424907 34.5579-6.88039 34.5579-15.8775 34.5579-24.8746 27.3071-32.176 18.2593-32.176 9.26221-32.176 1.95691-24.8746 1.95691-15.8775 1.95691-6.88039 9.26221 0.424907 18.2593 0.424907ZM18.2593-6.4048C12.9149-6.4048 8.8373-10.533 8.8373-15.8775 8.8373-21.222 12.9149-25.3502 18.2593-25.3502 23.6584-25.3502 27.732-21.222 27.732-15.8775 27.732-10.533 23.6584-6.4048 18.2593-6.4048Z" transform="matrix(1.00335 0 0 1 566.428 533.397)"/><path d="M3.12249 0 13.6009 0C22.333 0 29.4785-7.09089 29.4785-15.8775 29.4785-24.6641 22.333-31.755 13.6009-31.755L3.12249-31.755ZM10.1081-6.1904 10.1081-25.5607 13.5503-25.5607C18.5751-25.5607 22.4928-21.3818 22.4928-15.8775 22.4928-10.3732 18.5751-6.1904 13.5503-6.1904Z" transform="matrix(1.00335 0 0 1 609.49 533.397)"/><path d="M3.38757 0 10.3732 0 10.3732-31.755 3.38757-31.755Z" transform="matrix(1.00335 0 0 1 647.402 533.397)"/><path d="M22.7033-31.755-0.26508-31.755-0.26508-25.5607 7.78088-25.5607 7.78088 0 14.7119 0 14.7119-25.5607 22.7033-25.5607Z" transform="matrix(1.00335 0 0 1 667.526 533.397)"/><path d="M18.2593 0.424907C27.3071 0.424907 34.5579-6.88039 34.5579-15.8775 34.5579-24.8746 27.3071-32.176 18.2593-32.176 9.26221-32.176 1.95691-24.8746 1.95691-15.8775 1.95691-6.88039 9.26221 0.424907 18.2593 0.424907ZM18.2593-6.4048C12.9149-6.4048 8.8373-10.533 8.8373-15.8775 8.8373-21.222 12.9149-25.3502 18.2593-25.3502 23.6584-25.3502 27.732-21.222 27.732-15.8775 27.732-10.533 23.6584-6.4048 18.2593-6.4048Z" transform="matrix(1.00335 0 0 1 696.411 533.397)"/><path d="M19.6861-13.0708C23.444-14.1818 26.0909-17.6785 26.0909-22.0172 26.0909-27.4163 22.0679-31.755 16.6182-31.755L3.12249-31.755 3.12249 0 10.1081 0 10.1081-12.2794 12.9149-12.2794 20.7464 0 28.578 0ZM15.5579-18.0488 10.1081-18.0488 10.1081-25.5607 15.5579-25.5607C17.7838-25.5607 19.4249-23.9742 19.4249-21.8028 19.4249-19.5808 17.7838-18.0488 15.5579-18.0488Z" transform="matrix(1.00335 0 0 1 739.474 533.397)"/><path d="M18.2593 0.424907C24.555 0.424907 30.0086-3.12249 32.7062-8.30714L26.6717-11.4296C25.1397-8.41629 22.0172-6.4048 18.2593-6.4048 12.9149-6.4048 8.8373-10.533 8.8373-15.8775 8.8373-21.222 12.9149-25.3502 18.2593-25.3502 22.0172-25.3502 25.1397-23.3387 26.6717-20.3215L32.7062-23.444C30.0086-28.6325 24.555-32.176 18.2593-32.176 9.26221-32.176 1.95691-24.8746 1.95691-15.8775 1.95691-6.88039 9.26221 0.424907 18.2593 0.424907Z" fill="#616161" transform="matrix(1.00335 0 0 1 522.577 530.124)"/><path d="M18.2593 0.424907C27.3071 0.424907 34.5579-6.88039 34.5579-15.8775 34.5579-24.8746 27.3071-32.176 18.2593-32.176 9.26221-32.176 1.95691-24.8746 1.95691-15.8775 1.95691-6.88039 9.26221 0.424907 18.2593 0.424907ZM18.2593-6.4048C12.9149-6.4048 8.8373-10.533 8.8373-15.8775 8.8373-21.222 12.9149-25.3502 18.2593-25.3502 23.6584-25.3502 27.732-21.222 27.732-15.8775 27.732-10.533 23.6584-6.4048 18.2593-6.4048Z" fill="#616161" transform="matrix(1.00335 0 0 1 563.143 530.124)"/><path d="M3.12249 0 13.6009 0C22.333 0 29.4785-7.09089 29.4785-15.8775 29.4785-24.6641 22.333-31.755 13.6009-31.755L3.12249-31.755ZM10.1081-6.1904 10.1081-25.5607 13.5503-25.5607C18.5751-25.5607 22.4928-21.3818 22.4928-15.8775 22.4928-10.3732 18.5751-6.1904 13.5503-6.1904Z" fill="#616161" transform="matrix(1.00335 0 0 1 606.206 530.124)"/><path d="M3.38757 0 10.3732 0 10.3732-31.755 3.38757-31.755Z" fill="#616161" transform="matrix(1.00335 0 0 1 644.118 530.124)"/><path d="M22.7033-31.755-0.26508-31.755-0.26508-25.5607 7.78088-25.5607 7.78088 0 14.7119 0 14.7119-25.5607 22.7033-25.5607Z" fill="#616161" transform="matrix(1.00335 0 0 1 664.242 530.124)"/><path d="M18.2593 0.424907C27.3071 0.424907 34.5579-6.88039 34.5579-15.8775 34.5579-24.8746 27.3071-32.176 18.2593-32.176 9.26221-32.176 1.95691-24.8746 1.95691-15.8775 1.95691-6.88039 9.26221 0.424907 18.2593 0.424907ZM18.2593-6.4048C12.9149-6.4048 8.8373-10.533 8.8373-15.8775 8.8373-21.222 12.9149-25.3502 18.2593-25.3502 23.6584-25.3502 27.732-21.222 27.732-15.8775 27.732-10.533 23.6584-6.4048 18.2593-6.4048Z" fill="#616161" transform="matrix(1.00335 0 0 1 693.127 530.124)"/><path d="M19.6861-13.0708C23.444-14.1818 26.0909-17.6785 26.0909-22.0172 26.0909-27.4163 22.0679-31.755 16.6182-31.755L3.12249-31.755 3.12249 0 10.1081 0 10.1081-12.2794 12.9149-12.2794 20.7464 0 28.578 0ZM15.5579-18.0488 10.1081-18.0488 10.1081-25.5607 15.5579-25.5607C17.7838-25.5607 19.4249-23.9742 19.4249-21.8028 19.4249-19.5808 17.7838-18.0488 15.5579-18.0488Z" fill="#616161" transform="matrix(1.00335 0 0 1 736.188 530.124)"/></g></svg>